<?xml version="1.0" encoding="UTF-8"?><svg id="a" xmlns="http://www.w3.org/2000/svg" xmlns:xlink="http://www.w3.org/1999/xlink" viewBox="0 0 400 400"><defs><style>.d{fill:none;}.e{fill:#010101;}.f{fill:#fff;}.g{fill:#6e6f71;}.h{clip-path:url(#b);}.i{clip-path:url(#c);}</style><clipPath id="b"><rect class="d" width="400" height="400"/></clipPath><clipPath id="c"><rect class="d" width="400" height="400"/></clipPath></defs><g class="h"><rect class="f" width="400" height="400"/><g class="i"><g><path class="e" d="M32.46,27.214c-.737-2.833-1.382-4.081-2.811-5.617-1.613-1.728-3.549-2.64-5.622-2.64-2.857,0-4.793,1.776-4.793,4.416s1.936,4.753,6.774,7.489c6.083,3.456,8.617,6.576,8.617,10.513,0,4.944-4.055,8.736-9.4,8.736-1.798,0-3.687-.384-5.438-1.104-.876-.336-1.659-.528-2.166-.528-.691,0-1.244,.672-1.29,1.584h-1.014l-1.383-10.177h1.06c2.305,5.856,5.161,8.497,9.309,8.497,3.364,0,5.668-2.209,5.668-5.377,0-1.2-.23-2.208-.646-2.832-1.151-1.824-3.548-3.744-6.865-5.616-5.161-2.833-7.189-5.521-7.189-9.361,0-2.496,.83-4.513,2.442-6,1.521-1.393,3.549-2.209,5.484-2.209,1.521,0,3.226,.385,4.931,1.057,.783,.384,1.566,.576,2.027,.576,.783,0,1.29-.528,1.475-1.633h.968l1.014,10.226h-1.152Z"/><path class="e" d="M53.242,49.92c-1.981,0-2.58-1.009-2.811-3.696-2.996,2.64-4.793,3.696-7.373,3.696-2.949,0-5.069-2.209-5.069-5.377,0-1.68,.691-3.408,1.751-4.416,2.074-1.921,3.18-2.305,10.599-5.425v-3.072c0-2.736-1.566-4.177-3.917-4.177-1.936,0-3.502,1.104-3.502,2.448,0,.385,.046,.769,.139,1.2,.046,.385,.092,.624,.092,.816,0,1.104-1.014,2.112-2.166,2.112s-2.073-1.008-2.073-2.16c0-3.169,3.594-5.616,8.11-5.616,2.856,0,4.931,.912,6.036,2.735,.691,1.2,.968,2.688,.968,5.329v9.793c0,2.208,.322,2.928,1.429,2.928,.737,0,1.29-.24,2.12-.96v1.344c-1.705,1.873-2.719,2.497-4.332,2.497Zm-11.244-7.009v.191c0,2.16,1.383,3.889,3.502,3.889,1.475,0,2.396-.384,3.595-1.104,1.014-.624,1.244-1.151,1.244-2.688v-7.297c-5.622,2.064-8.341,3.984-8.341,7.009Z"/><path class="e" d="M76.604,31.39l-6.498,16.226c-.737,1.824-1.105,2.496-1.428,2.496-.415,0-.83-1.104-1.383-2.352l-6.175-14.498c-2.212-5.232-2.673-5.664-4.608-5.76v-.769h9.724v.769c-1.798,.144-2.351,.479-2.351,1.392,0,.433,.185,1.152,.461,1.872l5.346,13.297,5.253-13.44c.185-.528,.322-1.009,.322-1.536,0-.96-.783-1.44-2.396-1.584v-.769h7.05v.769c-1.521,.144-1.843,.479-3.317,3.888Z"/><path class="e" d="M89.275,49.92c-5.529,0-9.031-4.32-9.031-11.281,0-4.129,1.29-7.729,3.594-9.793,1.844-1.729,4.102-2.592,6.498-2.592,2.534,0,4.746,1.056,6.221,2.832,1.198,1.632,1.705,3.072,2.073,6.385l-15.022-.049c.139,3.121,.461,4.849,1.337,6.769,1.428,2.881,3.64,4.417,6.405,4.417,3.087,0,5.392-1.488,7.695-5.329l.507,.24c-2.027,5.425-5.622,8.401-10.276,8.401Zm-.322-22.082c-2.949,0-4.7,1.872-5.207,5.952h10.046c-.646-4.513-1.89-5.952-4.839-5.952Z"/><path class="e" d="M134.711,49.439l-10.967-14.785-2.581,.096v9.457c.046,3.504,.6,4.08,4.147,4.32v.912h-12.765v-.912c3.456-.288,3.871-.768,3.917-4.849V22.894c-.046-3.505-.507-3.937-3.917-4.32v-.912h12.719c4.332,0,8.156,1.248,9.907,3.216,1.198,1.393,1.798,3.168,1.798,5.232,0,4.416-2.489,6.816-8.341,8.017l9.492,12.146c1.337,1.632,2.258,2.112,4.01,2.256v.912h-7.42Zm-5.392-18.098c1.659-.912,2.627-2.928,2.627-5.328,0-4.513-2.673-6.577-8.433-6.577-1.844,0-2.351,.385-2.351,1.729v11.809c4.424-.096,6.037-.384,8.156-1.632Z"/><path class="e" d="M163.188,37.631c0,7.008-4.654,12.289-10.736,12.289s-10.599-5.041-10.599-11.905c0-6.961,4.331-11.761,10.69-11.761,6.175,0,10.645,4.704,10.645,11.377Zm-17.096-2.112c0,3.552,.783,7.296,2.166,9.889,1.014,2.016,2.902,3.312,4.792,3.312,3.641,0,5.898-3.553,5.898-9.313,0-6.912-2.995-11.953-7.05-11.953-3.457,0-5.807,3.265-5.807,8.065Z"/><path class="e" d="M186.873,37.631c0,7.008-4.654,12.289-10.736,12.289s-10.599-5.041-10.599-11.905c0-6.961,4.331-11.761,10.69-11.761,6.175,0,10.645,4.704,10.645,11.377Zm-17.096-2.112c0,3.552,.783,7.296,2.166,9.889,1.014,2.016,2.902,3.312,4.792,3.312,3.641,0,5.898-3.553,5.898-9.313,0-6.912-2.995-11.953-7.05-11.953-3.457,0-5.807,3.265-5.807,8.065Z"/><path class="e" d="M191.711,45.167v-12.769c0-2.4-.646-3.217-1.89-3.217-.553,0-.922,.048-1.566,.192v-.864c2.673-.72,4.331-1.296,6.773-2.256l.323,.096v3.792c4.101-3.216,5.345-3.888,7.511-3.888,2.627,0,4.286,1.344,5.161,4.224,2.581-2.928,5.023-4.224,7.88-4.224,3.733,0,5.576,3.023,5.576,8.977v10.369c0,1.968,.553,2.735,2.12,2.976l1.244,.097v.768h-10.369v-.768c2.812-.288,3.18-.625,3.18-3.601v-10.657c0-4.176-1.105-5.521-3.824-5.521-2.305,0-3.825,.912-5.3,3.072v12.673c.093,3.217,.784,4.033,3.503,4.033v.768h-10.646v-.768c2.719-.145,3.226-.673,3.318-3.553v-10.945c0-3.552-1.29-5.28-3.41-5.28-1.705,0-3.778,.816-5.023,2.017-.322,.336-.69,.815-.69,.96v14.209c.046,2.017,.829,2.544,3.271,2.593v.768h-10.737v-.768c2.903,0,3.503-.673,3.595-3.505Z"/><path class="e" d="M244.934,49.439v-.912c3.871-.24,4.285-.72,4.332-4.849V19.677h-2.488c-5.3,.096-6.268,.912-7.327,6.145h-1.106l.276-8.16h25.99l.276,8.16h-1.105c-1.014-5.232-1.981-6.049-7.327-6.145h-2.488v24.53c.046,3.504,.645,4.128,4.424,4.32v.912h-13.456Z"/><path class="e" d="M279.354,49.439v-.768c2.765-.24,3.271-.816,3.271-4.369v-9.984c0-3.505-1.197-5.329-3.687-5.329-1.889,0-3.548,.961-5.483,3.169v12.385c.093,3.408,.461,3.937,3.134,4.177v.72h-9.954v-.72c2.627-.336,2.857-.721,2.949-4.177V21.933c0-2.063-.368-2.448-2.35-2.448-.23,0-.369,0-.553,.049v-.769l1.244-.384c2.58-.769,3.732-1.152,5.299-1.729l.23,.145v13.681c2.12-2.88,4.239-4.224,7.097-4.224,3.963,0,5.944,2.735,5.944,8.017v10.032c.093,3.553,.323,3.937,2.903,4.369v.768h-10.046Z"/><path class="e" d="M299.998,49.92c-5.529,0-9.031-4.32-9.031-11.281,0-4.129,1.29-7.729,3.594-9.793,1.844-1.729,4.102-2.592,6.498-2.592,2.534,0,4.746,1.056,6.221,2.832,1.198,1.632,1.705,3.072,2.073,6.385l-15.022-.049c.139,3.121,.461,4.849,1.337,6.769,1.428,2.881,3.64,4.417,6.405,4.417,3.087,0,5.392-1.488,7.695-5.329l.507,.24c-2.027,5.425-5.622,8.401-10.276,8.401Zm-.322-22.082c-2.949,0-4.7,1.872-5.207,5.952h10.046c-.646-4.513-1.89-5.952-4.839-5.952Z"/><path class="e" d="M314.467,45.167v-12.769c0-2.4-.646-3.217-1.89-3.217-.553,0-.922,.048-1.566,.192v-.864c2.673-.72,4.331-1.296,6.773-2.256l.323,.096v3.792c4.101-3.216,5.345-3.888,7.511-3.888,2.627,0,4.286,1.344,5.161,4.224,2.581-2.928,5.023-4.224,7.88-4.224,3.733,0,5.576,3.023,5.576,8.977v10.369c0,1.968,.553,2.735,2.12,2.976l1.244,.097v.768h-10.369v-.768c2.812-.288,3.18-.625,3.18-3.601v-10.657c0-4.176-1.105-5.521-3.824-5.521-2.305,0-3.825,.912-5.3,3.072v12.673c.093,3.217,.784,4.033,3.503,4.033v.768h-10.646v-.768c2.719-.145,3.226-.673,3.318-3.553v-10.945c0-3.552-1.29-5.28-3.41-5.28-1.705,0-3.778,.816-5.023,2.017-.322,.336-.69,.815-.69,.96v14.209c.046,2.017,.829,2.544,3.271,2.593v.768h-10.737v-.768c2.903,0,3.503-.673,3.595-3.505Z"/><path class="e" d="M357.967,49.92c-5.529,0-9.031-4.32-9.031-11.281,0-4.129,1.29-7.729,3.594-9.793,1.844-1.729,4.102-2.592,6.498-2.592,2.534,0,4.746,1.056,6.221,2.832,1.198,1.632,1.705,3.072,2.073,6.385l-15.022-.049c.139,3.121,.461,4.849,1.337,6.769,1.428,2.881,3.64,4.417,6.405,4.417,3.087,0,5.392-1.488,7.695-5.329l.507,.24c-2.027,5.425-5.622,8.401-10.276,8.401Zm-.322-22.082c-2.949,0-4.7,1.872-5.207,5.952h10.046c-.646-4.513-1.89-5.952-4.839-5.952Z"/></g></g><g><path class="e" d="M18.93,84.439v-.304c.814-.017,1.076-.145,1.076-.545,0-.224-.108-.64-.292-1.072l-.63-1.536h-4.026l-.707,1.872c-.076,.208-.123,.433-.123,.625,0,.464,.308,.656,1.045,.656v.304h-3.042v-.304c.737-.032,.922-.288,1.905-2.625l3.196-7.859h.308l3.825,9.092c.538,1.185,.691,1.344,1.383,1.393v.304h-3.918Zm-1.844-8.516l-1.767,4.402h3.549l-1.782-4.402Z"/><path class="e" d="M24.534,83.031v-4.69c0-.736-.153-1.008-.63-1.008-.199,0-.338,.016-.568,.08v-.272c.953-.32,1.536-.544,2.382-.912l.092,.031v1.825c.83-1.265,1.321-1.665,2.028-1.665,.584,0,.938,.353,.938,.944,0,.496-.261,.784-.661,.784-.23,0-.399-.096-.676-.352-.199-.176-.338-.256-.445-.256-.477,0-1.184,.88-1.184,1.44v3.953c.031,.977,.292,1.217,1.368,1.249v.256h-3.872v-.256c1.091-.177,1.183-.288,1.229-1.152Z"/><path class="e" d="M31.6,77.333v4.993c0,1.009,.23,1.441,.799,1.441,.338,0,.584-.145,.922-.561l.2,.176c-.507,.833-1.091,1.217-1.844,1.217-.907,0-1.368-.688-1.368-2.033v-5.233h-.814c-.046-.032-.062-.064-.062-.112,0-.097,.093-.192,.262-.305,.445-.271,.906-.816,1.798-2.16,.077,0,.107,.048,.107,.208v1.856h1.552v.513h-1.552Z"/><path class="e" d="M42.369,84.6l-.062-.048v-1.072c-.554,.784-1.168,1.12-2.06,1.12-1.705,0-2.996-1.568-2.996-3.617,0-2.273,1.506-4.274,3.365-4.274,.646,0,1.075,.177,1.69,.721v-2.161c0-.656-.139-.816-.707-.816-.123,0-.215,0-.338,.017v-.257c.983-.271,1.521-.432,2.259-.704l.076,.032v9.075c0,.736,.123,.913,.677,.913,.062,0,.153,0,.354-.017v.257l-2.259,.832Zm-1.706-7.491c-1.229,0-2.059,1.297-2.059,3.201,0,1.969,.938,3.474,2.273,3.474,.477,0,.907-.176,1.184-.513,.169-.176,.276-.384,.276-.512v-3.665c0-1.153-.799-1.985-1.675-1.985Z"/><path class="e" d="M46.115,82.807v-4.193c0-.704-.139-.961-.507-.961-.139,0-.338,.017-.522,.049l-.123,.016v-.24l2.382-.88,.062,.048v6.162c.015,1.169,.122,1.312,1.137,1.393v.24h-3.642v-.24c1.045-.048,1.214-.208,1.214-1.393Zm1.306-8.483c0,.464-.338,.816-.799,.816-.43,0-.769-.353-.769-.816,0-.448,.354-.816,.769-.816,.445,0,.799,.353,.799,.816Z"/><path class="e" d="M50.262,83.031v-4.69c0-.736-.153-1.008-.63-1.008-.199,0-.338,.016-.568,.08v-.272c.953-.32,1.536-.544,2.382-.912l.092,.031v1.825c.83-1.265,1.321-1.665,2.028-1.665,.584,0,.938,.353,.938,.944,0,.496-.261,.784-.661,.784-.23,0-.399-.096-.676-.352-.199-.176-.338-.256-.445-.256-.477,0-1.184,.88-1.184,1.44v3.953c.031,.977,.292,1.217,1.368,1.249v.256h-3.872v-.256c1.091-.177,1.183-.288,1.229-1.152Z"/><path class="e" d="M58.08,84.6c-1.844,0-3.012-1.44-3.012-3.762,0-1.376,.431-2.577,1.199-3.266,.614-.576,1.367-.864,2.166-.864,.846,0,1.583,.353,2.074,.944,.399,.545,.569,1.024,.691,2.129l-5.009-.016c.046,1.04,.153,1.616,.445,2.257,.477,.96,1.214,1.473,2.136,1.473,1.03,0,1.798-.496,2.566-1.776l.169,.08c-.676,1.809-1.875,2.801-3.427,2.801Zm-.107-7.363c-.983,0-1.567,.624-1.736,1.985h3.35c-.215-1.505-.63-1.985-1.613-1.985Z"/><path class="e" d="M67.145,83.815c-.584,.512-1.229,.784-1.967,.784-1.783,0-3.059-1.568-3.059-3.729,0-1.345,.446-2.481,1.261-3.233,.66-.592,1.475-.929,2.273-.929,1.353,0,2.489,.784,2.489,1.729,0,.384-.338,.704-.768,.704-.354,0-.615-.32-.753-.816l-.093-.385c-.169-.624-.384-.816-.983-.816-1.306,0-2.228,1.233-2.228,2.978,0,1.937,1.06,3.346,2.551,3.346,.922,0,1.536-.433,2.319-1.601l.17,.111c-.477,.993-.784,1.473-1.214,1.857Z"/><path class="e" d="M70.737,77.333v4.993c0,1.009,.23,1.441,.799,1.441,.338,0,.584-.145,.922-.561l.2,.176c-.507,.833-1.091,1.217-1.844,1.217-.907,0-1.368-.688-1.368-2.033v-5.233h-.814c-.046-.032-.062-.064-.062-.112,0-.097,.093-.192,.262-.305,.445-.271,.906-.816,1.798-2.16,.077,0,.107,.048,.107,.208v1.856h1.552v.513h-1.552Z"/><path class="e" d="M73.993,82.807v-4.193c0-.704-.139-.961-.507-.961-.139,0-.338,.017-.522,.049l-.123,.016v-.24l2.382-.88,.062,.048v6.162c.015,1.169,.122,1.312,1.137,1.393v.24h-3.642v-.24c1.045-.048,1.214-.208,1.214-1.393Zm1.306-8.483c0,.464-.338,.816-.799,.816-.43,0-.769-.353-.769-.816,0-.448,.354-.816,.769-.816,.445,0,.799,.353,.799,.816Z"/><path class="e" d="M84.056,80.502c0,2.337-1.552,4.098-3.58,4.098s-3.534-1.681-3.534-3.97c0-2.321,1.444-3.922,3.564-3.922,2.06,0,3.55,1.569,3.55,3.794Zm-5.7-.704c0,1.185,.261,2.433,.722,3.297,.338,.673,.968,1.104,1.598,1.104,1.214,0,1.967-1.185,1.967-3.105,0-2.305-.998-3.985-2.351-3.985-1.152,0-1.936,1.089-1.936,2.689Z"/><path class="e" d="M85.835,82.935v-4.178c0-.816-.138-1.072-.676-1.072-.169,0-.338,.017-.43,.064v-.288c.891-.272,1.429-.448,2.228-.753l.107,.032v1.329c1.106-1.073,1.829-1.361,2.566-1.361,1.198,0,1.905,.944,1.905,2.529v3.842c.016,.816,.199,1.024,.983,1.104v.256h-3.35v-.256c.86-.048,1.091-.32,1.091-1.409v-3.505c0-1.121-.384-1.633-1.245-1.633-.691,0-1.137,.192-1.905,.96v4.723c0,.592,.262,.816,1.076,.864v.256h-3.427v-.256c.892-.048,1.075-.272,1.075-1.249Z"/><path class="e" d="M99.368,77.333v5.441c0,1.201,.169,1.377,1.429,1.425v.24h-3.995v-.24c1.091-.048,1.275-.224,1.275-1.425v-5.441h-1.26v-.513h1.26c.016-.8,.139-1.44,.538-2.161,.399-.72,1.198-1.152,2.166-1.152,.922,0,1.599,.416,1.599,.992,0,.368-.276,.656-.646,.656-.262,0-.445-.159-.691-.576-.276-.464-.477-.624-.814-.624-.584,0-.876,.48-.876,1.425v1.44h1.89v.513h-1.874Z"/><path class="e" d="M108.662,80.502c0,2.337-1.552,4.098-3.58,4.098s-3.534-1.681-3.534-3.97c0-2.321,1.444-3.922,3.564-3.922,2.06,0,3.55,1.569,3.55,3.794Zm-5.7-.704c0,1.185,.261,2.433,.722,3.297,.338,.673,.968,1.104,1.598,1.104,1.215,0,1.967-1.185,1.967-3.105,0-2.305-.998-3.985-2.351-3.985-1.152,0-1.936,1.089-1.936,2.689Z"/><path class="e" d="M110.564,83.031v-4.69c0-.736-.153-1.008-.63-1.008-.199,0-.338,.016-.568,.08v-.272c.953-.32,1.536-.544,2.382-.912l.092,.031v1.825c.83-1.265,1.321-1.665,2.028-1.665,.584,0,.938,.353,.938,.944,0,.496-.261,.784-.661,.784-.23,0-.399-.096-.676-.352-.199-.176-.338-.256-.445-.256-.477,0-1.184,.88-1.184,1.44v3.953c.031,.977,.292,1.217,1.368,1.249v.256h-3.872v-.256c1.091-.177,1.183-.288,1.229-1.152Z"/><path class="e" d="M120.933,77.333v4.993c0,1.009,.23,1.441,.799,1.441,.338,0,.584-.145,.922-.561l.2,.176c-.507,.833-1.091,1.217-1.844,1.217-.907,0-1.368-.688-1.368-2.033v-5.233h-.814c-.046-.032-.062-.064-.062-.112,0-.097,.093-.192,.262-.305,.445-.271,.906-.816,1.798-2.16,.077,0,.107,.048,.107,.208v1.856h1.552v.513h-1.552Z"/><path class="e" d="M127.247,84.439v-.256c.922-.08,1.091-.272,1.091-1.457v-3.329c0-1.169-.399-1.776-1.229-1.776-.63,0-1.183,.319-1.828,1.056v4.13c.03,1.137,.153,1.312,1.045,1.393v.24h-3.319v-.24c.876-.112,.953-.24,.983-1.393v-7.539c0-.688-.123-.816-.783-.816-.077,0-.123,0-.185,.017v-.257l.415-.128c.86-.256,1.244-.384,1.767-.576l.077,.048v4.562c.707-.961,1.413-1.409,2.366-1.409,1.321,0,1.982,.913,1.982,2.674v3.345c.03,1.185,.107,1.312,.968,1.457v.256h-3.35Z"/><path class="e" d="M134.403,84.6c-1.844,0-3.012-1.44-3.012-3.762,0-1.376,.431-2.577,1.199-3.266,.614-.576,1.367-.864,2.166-.864,.846,0,1.583,.353,2.074,.944,.399,.545,.569,1.024,.691,2.129l-5.009-.016c.046,1.04,.153,1.616,.445,2.257,.477,.96,1.214,1.473,2.136,1.473,1.03,0,1.798-.496,2.566-1.776l.169,.08c-.676,1.809-1.875,2.801-3.427,2.801Zm-.107-7.363c-.983,0-1.567,.624-1.736,1.985h3.35c-.215-1.505-.63-1.985-1.613-1.985Z"/><path class="e" d="M142.959,83.047v-7.635c0-.753-.153-.977-.646-.977-.123,0-.308,.016-.477,.032h-.092v-.257c1.061-.271,1.645-.432,2.443-.704l.062,.032v9.556c.015,.896,.184,1.057,1.152,1.104v.24h-3.627v-.24c.953-.063,1.168-.288,1.184-1.152Z"/><path class="e" d="M151.146,84.6c-.66,0-.86-.336-.938-1.232-.998,.88-1.598,1.232-2.458,1.232-.983,0-1.69-.736-1.69-1.793,0-.561,.23-1.137,.584-1.473,.691-.64,1.061-.769,3.534-1.809v-1.024c0-.912-.522-1.393-1.306-1.393-.646,0-1.168,.368-1.168,.816,0,.128,.015,.256,.046,.4,.016,.128,.03,.208,.03,.271,0,.368-.338,.705-.722,.705s-.691-.337-.691-.721c0-1.057,1.198-1.873,2.704-1.873,.953,0,1.645,.305,2.013,.913,.23,.399,.323,.896,.323,1.776v3.266c0,.736,.107,.976,.477,.976,.245,0,.43-.079,.706-.319v.448c-.568,.624-.906,.832-1.444,.832Zm-3.749-2.337v.063c0,.721,.461,1.297,1.168,1.297,.491,0,.799-.128,1.198-.368,.338-.208,.415-.384,.415-.896v-2.433c-1.875,.688-2.781,1.328-2.781,2.337Z"/><path class="e" d="M154.694,77.333v4.993c0,1.009,.23,1.441,.799,1.441,.338,0,.584-.145,.922-.561l.2,.176c-.507,.833-1.091,1.217-1.844,1.217-.907,0-1.368-.688-1.368-2.033v-5.233h-.814c-.046-.032-.062-.064-.062-.112,0-.097,.093-.192,.262-.305,.445-.271,.906-.816,1.798-2.16,.077,0,.107,.048,.107,.208v1.856h1.552v.513h-1.552Z"/><path class="e" d="M159.932,84.6c-1.844,0-3.012-1.44-3.012-3.762,0-1.376,.431-2.577,1.199-3.266,.614-.576,1.367-.864,2.166-.864,.846,0,1.583,.353,2.074,.944,.399,.545,.569,1.024,.691,2.129l-5.009-.016c.046,1.04,.153,1.616,.445,2.257,.477,.96,1.214,1.473,2.136,1.473,1.03,0,1.798-.496,2.566-1.776l.169,.08c-.676,1.809-1.875,2.801-3.427,2.801Zm-.107-7.363c-.983,0-1.567,.624-1.736,1.985h3.35c-.215-1.505-.63-1.985-1.613-1.985Z"/><path class="e" d="M166.506,76.933c-.752,0-1.274,.464-1.274,1.168,0,.465,.261,.977,.706,1.249l1.783,1.104c.952,.592,1.321,1.088,1.321,1.952,0,1.201-.969,2.193-2.352,2.193-.322,0-.66-.064-1.106-.176-.384-.097-.583-.129-.753-.129-.199,0-.276,.032-.384,.209h-.215v-2.674h.261c.385,1.745,.953,2.386,2.09,2.386,.846,0,1.368-.48,1.368-1.233,0-.527-.277-.944-.861-1.28l-.952-.56c-1.398-.833-1.921-1.505-1.921-2.466,0-1.248,.938-2.129,2.243-2.129,.385,0,.769,.08,1.152,.225,.169,.08,.339,.112,.431,.112s.169-.049,.276-.192h.169l.077,2.353h-.246c-.384-1.536-.876-2.112-1.813-2.112Z"/><path class="e" d="M171.851,77.333v4.993c0,1.009,.23,1.441,.799,1.441,.338,0,.584-.145,.922-.561l.2,.176c-.507,.833-1.091,1.217-1.844,1.217-.907,0-1.368-.688-1.368-2.033v-5.233h-.814c-.046-.032-.062-.064-.062-.112,0-.097,.093-.192,.262-.305,.445-.271,.906-.816,1.798-2.16,.077,0,.107,.048,.107,.208v1.856h1.552v.513h-1.552Z"/><path class="e" d="M178.701,83.015v-4.258c0-.8-.215-1.072-.63-1.072-.185,0-.308,.017-.522,.064v-.288c.891-.24,1.444-.433,2.259-.753l.107,.032v1.265c1.367-1.072,1.782-1.297,2.505-1.297,.875,0,1.429,.448,1.721,1.409,.86-.977,1.675-1.409,2.627-1.409,1.245,0,1.859,1.009,1.859,2.993v3.458c0,.656,.185,.912,.707,.992l.415,.032v.256h-3.457v-.256c.937-.097,1.06-.208,1.06-1.201v-3.553c0-1.393-.368-1.841-1.275-1.841-.768,0-1.275,.304-1.767,1.024v4.226c.03,1.072,.261,1.345,1.168,1.345v.256h-3.55v-.256c.906-.048,1.075-.225,1.106-1.185v-3.649c0-1.185-.431-1.761-1.137-1.761-.569,0-1.261,.271-1.675,.672-.108,.112-.23,.272-.23,.32v4.738c.015,.672,.276,.848,1.091,.864v.256h-3.58v-.256c.968,0,1.167-.225,1.198-1.169Z"/><path class="e" d="M195.905,84.584l-.076-.032v-1.393l-.691,.72c-.431,.448-1.214,.721-1.891,.721-1.183,0-1.951-.864-1.951-2.177v-4.242c0-.8-.246-1.04-.999-1.072v-.24h2.274v5.475c0,.704,.6,1.28,1.383,1.28,.554,0,1.061-.192,1.49-.576,.23-.176,.308-.416,.308-.88v-3.954c0-.832-.185-1.009-1.198-1.057v-.288h2.474v5.763c.016,.8,.215,.929,.999,.96h.076v.24c-.813,.225-1.397,.416-2.197,.753Z"/><path class="e" d="M201.465,76.933c-.752,0-1.274,.464-1.274,1.168,0,.465,.261,.977,.706,1.249l1.783,1.104c.952,.592,1.321,1.088,1.321,1.952,0,1.201-.969,2.193-2.352,2.193-.322,0-.66-.064-1.106-.176-.384-.097-.583-.129-.753-.129-.199,0-.276,.032-.384,.209h-.215v-2.674h.261c.385,1.745,.953,2.386,2.09,2.386,.846,0,1.368-.48,1.368-1.233,0-.527-.277-.944-.861-1.28l-.952-.56c-1.398-.833-1.921-1.505-1.921-2.466,0-1.248,.938-2.129,2.243-2.129,.385,0,.769,.08,1.152,.225,.169,.08,.339,.112,.431,.112s.169-.049,.276-.192h.169l.077,2.353h-.246c-.384-1.536-.876-2.112-1.813-2.112Z"/><path class="e" d="M206.165,82.807v-4.193c0-.704-.139-.961-.507-.961-.139,0-.338,.017-.522,.049l-.123,.016v-.24l2.382-.88,.062,.048v6.162c.015,1.169,.122,1.312,1.137,1.393v.24h-3.642v-.24c1.045-.048,1.214-.208,1.214-1.393Zm1.306-8.483c0,.464-.338,.816-.799,.816-.43,0-.769-.353-.769-.816,0-.448,.354-.816,.769-.816,.445,0,.799,.353,.799,.816Z"/><path class="e" d="M214.276,83.815c-.584,.512-1.229,.784-1.967,.784-1.783,0-3.059-1.568-3.059-3.729,0-1.345,.446-2.481,1.261-3.233,.66-.592,1.475-.929,2.273-.929,1.353,0,2.489,.784,2.489,1.729,0,.384-.338,.704-.768,.704-.354,0-.615-.32-.753-.816l-.093-.385c-.169-.624-.384-.816-.983-.816-1.306,0-2.228,1.233-2.228,2.978,0,1.937,1.06,3.346,2.551,3.346,.922,0,1.536-.433,2.319-1.601l.17,.111c-.477,.993-.784,1.473-1.214,1.857Z"/><path class="e" d="M221.219,84.6c-.66,0-.86-.336-.938-1.232-.998,.88-1.598,1.232-2.458,1.232-.983,0-1.69-.736-1.69-1.793,0-.561,.23-1.137,.584-1.473,.691-.64,1.061-.769,3.534-1.809v-1.024c0-.912-.522-1.393-1.306-1.393-.646,0-1.168,.368-1.168,.816,0,.128,.015,.256,.046,.4,.016,.128,.03,.208,.03,.271,0,.368-.338,.705-.722,.705s-.691-.337-.691-.721c0-1.057,1.198-1.873,2.704-1.873,.953,0,1.645,.305,2.013,.913,.23,.399,.323,.896,.323,1.776v3.266c0,.736,.107,.976,.477,.976,.245,0,.43-.079,.706-.319v.448c-.568,.624-.906,.832-1.444,.832Zm-3.749-2.337v.063c0,.721,.461,1.297,1.168,1.297,.491,0,.799-.128,1.198-.368,.338-.208,.415-.384,.415-.896v-2.433c-1.875,.688-2.781,1.328-2.781,2.337Z"/><path class="e" d="M224.013,83.047v-7.635c0-.753-.153-.977-.646-.977-.123,0-.308,.016-.477,.032h-.092v-.257c1.061-.271,1.645-.432,2.443-.704l.062,.032v9.556c.015,.896,.184,1.057,1.152,1.104v.24h-3.627v-.24c.953-.063,1.168-.288,1.184-1.152Z"/><path class="e" d="M231.539,86.536v-7.971c0-.753-.107-.913-.63-.913-.138,0-.245,0-.384,.017v-.256c.845-.272,1.383-.48,2.213-.816l.092,.031v1.393c.707-.912,1.414-1.312,2.32-1.312,1.567,0,2.704,1.489,2.704,3.569,0,2.434-1.475,4.322-3.396,4.322-.676,0-1.045-.16-1.629-.721v2.545c.016,1.024,.2,1.185,1.353,1.201v.288h-3.719v-.272c.906-.096,1.075-.256,1.075-1.104Zm2.966-2.417c1.168,0,1.998-1.312,1.998-3.169,0-2.001-.814-3.298-2.028-3.298-.738,0-1.675,.625-1.675,1.121v4.226c0,.496,.952,1.12,1.705,1.12Z"/><path class="e" d="M239.741,83.031v-4.69c0-.736-.153-1.008-.63-1.008-.199,0-.338,.016-.568,.08v-.272c.953-.32,1.536-.544,2.382-.912l.092,.031v1.825c.83-1.265,1.321-1.665,2.028-1.665,.584,0,.938,.353,.938,.944,0,.496-.261,.784-.661,.784-.23,0-.399-.096-.676-.352-.199-.176-.338-.256-.445-.256-.477,0-1.184,.88-1.184,1.44v3.953c.031,.977,.292,1.217,1.368,1.249v.256h-3.872v-.256c1.091-.177,1.183-.288,1.229-1.152Z"/><path class="e" d="M251.524,80.502c0,2.337-1.552,4.098-3.58,4.098s-3.534-1.681-3.534-3.97c0-2.321,1.444-3.922,3.564-3.922,2.06,0,3.55,1.569,3.55,3.794Zm-5.7-.704c0,1.185,.261,2.433,.722,3.297,.338,.673,.968,1.104,1.598,1.104,1.214,0,1.967-1.185,1.967-3.105,0-2.305-.998-3.985-2.351-3.985-1.152,0-1.936,1.089-1.936,2.689Z"/><path class="e" d="M253.473,87.305c-.415,.4-1.029,.624-1.705,.624-.846,0-1.444-.368-1.444-.88,0-.353,.276-.625,.63-.625,.245,0,.461,.145,.737,.513,.261,.336,.415,.448,.646,.448,.215,0,.43-.128,.522-.288,.169-.32,.215-.721,.215-1.937v-6.547c0-.688-.139-.961-.491-.961-.154,0-.385,.017-.615,.049l-.076,.016v-.256c.906-.288,1.49-.496,2.396-.864l.077,.048v7.795c0,1.265-.338,2.353-.892,2.865Zm.906-12.981c0,.464-.338,.816-.799,.816-.43,0-.768-.353-.768-.816,0-.448,.353-.816,.768-.816,.446,0,.799,.353,.799,.816Z"/><path class="e" d="M259.064,84.6c-1.844,0-3.012-1.44-3.012-3.762,0-1.376,.431-2.577,1.199-3.266,.614-.576,1.367-.864,2.166-.864,.846,0,1.583,.353,2.074,.944,.399,.545,.569,1.024,.691,2.129l-5.009-.016c.046,1.04,.153,1.616,.445,2.257,.477,.96,1.214,1.473,2.136,1.473,1.03,0,1.798-.496,2.566-1.776l.169,.08c-.676,1.809-1.875,2.801-3.427,2.801Zm-.107-7.363c-.983,0-1.567,.624-1.736,1.985h3.35c-.215-1.505-.63-1.985-1.613-1.985Z"/><path class="e" d="M268.144,83.815c-.584,.512-1.229,.784-1.967,.784-1.783,0-3.059-1.568-3.059-3.729,0-1.345,.446-2.481,1.261-3.233,.66-.592,1.475-.929,2.273-.929,1.353,0,2.489,.784,2.489,1.729,0,.384-.338,.704-.768,.704-.354,0-.615-.32-.753-.816l-.093-.385c-.169-.624-.384-.816-.983-.816-1.306,0-2.228,1.233-2.228,2.978,0,1.937,1.06,3.346,2.551,3.346,.922,0,1.536-.433,2.319-1.601l.17,.111c-.477,.993-.784,1.473-1.214,1.857Z"/><path class="e" d="M271.736,77.333v4.993c0,1.009,.23,1.441,.799,1.441,.338,0,.584-.145,.922-.561l.2,.176c-.507,.833-1.091,1.217-1.844,1.217-.907,0-1.368-.688-1.368-2.033v-5.233h-.814c-.046-.032-.062-.064-.062-.112,0-.097,.093-.192,.262-.305,.445-.271,.906-.816,1.798-2.16,.077,0,.107,.048,.107,.208v1.856h1.552v.513h-1.552Z"/><path class="e" d="M281.875,76.708c1.613,0,2.843,1.553,2.843,3.634,0,2.417-1.644,4.258-3.78,4.258-1.306,0-2.658-.561-2.658-1.072v-8.26c0-.672-.122-.816-.753-.816-.107,0-.169,0-.261,.017v-.257l.445-.128c.723-.208,1.138-.336,1.782-.576l.077,.032,.062,4.594c.322-.849,1.26-1.425,2.243-1.425Zm-.646,7.348c1.322,0,2.136-1.121,2.136-2.993,0-1.232-.353-2.401-.891-2.93-.338-.336-.753-.496-1.214-.496-.83,0-1.629,.624-1.629,1.28v4.322c0,.432,.753,.816,1.598,.816Z"/><path class="e" d="M291.63,77.893l-2.812,6.835c-.952,2.305-1.659,3.201-2.704,3.201-.661,0-1.122-.4-1.106-.929,.016-.399,.323-.704,.691-.704,.246,0,.507,.064,.784,.177,.169,.08,.307,.111,.399,.111,.215,0,.553-.304,.783-.704,.292-.496,.554-1.488,.568-1.744,0-.257-.153-.865-.584-1.697-.062-.176-.076-.208-.261-.64l-1.859-4.13c-.123-.288-.384-.48-.799-.545v-.239h3.334l-.015,.256c-.692,.032-.938,.16-.953,.464,0,.16,.046,.4,.153,.624l1.859,4.258,1.829-4.657c.046-.112,.076-.208,.076-.272,.016-.272-.245-.433-.753-.433v-.239h2.183v.239c-.4,.049-.584,.225-.814,.769Z"/><path class="e" d="M299.415,76.933c-.753,0-1.274,.464-1.274,1.168,0,.465,.261,.977,.706,1.249l1.782,1.104c.953,.592,1.322,1.088,1.322,1.952,0,1.201-.969,2.193-2.352,2.193-.322,0-.66-.064-1.106-.176-.384-.097-.583-.129-.753-.129-.199,0-.276,.032-.384,.209h-.215v-2.674h.261c.385,1.745,.953,2.386,2.09,2.386,.846,0,1.368-.48,1.368-1.233,0-.527-.277-.944-.861-1.28l-.952-.56c-1.398-.833-1.921-1.505-1.921-2.466,0-1.248,.938-2.129,2.243-2.129,.385,0,.769,.08,1.152,.225,.169,.08,.339,.112,.431,.112s.169-.049,.276-.192h.169l.077,2.353h-.246c-.384-1.536-.876-2.112-1.813-2.112Z"/><path class="e" d="M303.73,86.536v-7.971c0-.753-.107-.913-.63-.913-.138,0-.245,0-.384,.017v-.256c.845-.272,1.383-.48,2.213-.816l.092,.031v1.393c.707-.912,1.414-1.312,2.32-1.312,1.567,0,2.704,1.489,2.704,3.569,0,2.434-1.475,4.322-3.396,4.322-.676,0-1.045-.16-1.629-.721v2.545c.016,1.024,.2,1.185,1.353,1.201v.288h-3.719v-.272c.906-.096,1.075-.256,1.075-1.104Zm2.966-2.417c1.168,0,1.998-1.312,1.998-3.169,0-2.001-.814-3.298-2.028-3.298-.738,0-1.675,.625-1.675,1.121v4.226c0,.496,.952,1.12,1.705,1.12Z"/><path class="e" d="M315.943,84.6c-.66,0-.86-.336-.938-1.232-.998,.88-1.598,1.232-2.458,1.232-.983,0-1.69-.736-1.69-1.793,0-.561,.23-1.137,.584-1.473,.691-.64,1.061-.769,3.534-1.809v-1.024c0-.912-.522-1.393-1.306-1.393-.646,0-1.168,.368-1.168,.816,0,.128,.015,.256,.046,.4,.016,.128,.03,.208,.03,.271,0,.368-.338,.705-.722,.705s-.691-.337-.691-.721c0-1.057,1.198-1.873,2.704-1.873,.953,0,1.645,.305,2.013,.913,.23,.399,.323,.896,.323,1.776v3.266c0,.736,.107,.976,.477,.976,.245,0,.43-.079,.706-.319v.448c-.568,.624-.906,.832-1.444,.832Zm-3.749-2.337v.063c0,.721,.461,1.297,1.168,1.297,.491,0,.799-.128,1.198-.368,.338-.208,.415-.384,.415-.896v-2.433c-1.875,.688-2.781,1.328-2.781,2.337Z"/><path class="e" d="M318.906,83.031v-4.69c0-.736-.153-1.008-.63-1.008-.199,0-.338,.016-.568,.08v-.272c.953-.32,1.536-.544,2.382-.912l.092,.031v1.825c.83-1.265,1.321-1.665,2.028-1.665,.584,0,.938,.353,.938,.944,0,.496-.261,.784-.661,.784-.23,0-.399-.096-.676-.352-.199-.176-.338-.256-.445-.256-.477,0-1.184,.88-1.184,1.44v3.953c.031,.977,.292,1.217,1.368,1.249v.256h-3.872v-.256c1.091-.177,1.183-.288,1.229-1.152Z"/><path class="e" d="M330.552,79.157c0,1.937-.584,3.794-1.476,4.674-.553,.561-1.214,.832-1.997,.832-.892,0-1.675-.384-2.244-1.088-.722-.896-1.229-2.753-1.229-4.514,0-1.873,.584-3.714,1.475-4.61,.568-.576,1.214-.832,2.06-.832,2.013,0,3.411,2.257,3.411,5.538Zm-5.471,.048c0,3.33,.676,5.042,1.998,5.042s1.997-1.712,1.997-5.058-.691-5.154-1.982-5.154c-1.321,0-2.013,1.761-2.013,5.17Z"/><path class="e" d="M338.001,79.157c0,1.937-.584,3.794-1.476,4.674-.553,.561-1.214,.832-1.997,.832-.892,0-1.675-.384-2.244-1.088-.722-.896-1.229-2.753-1.229-4.514,0-1.873,.584-3.714,1.475-4.61,.568-.576,1.214-.832,2.06-.832,2.013,0,3.411,2.257,3.411,5.538Zm-5.471,.048c0,3.33,.676,5.042,1.998,5.042s1.997-1.712,1.997-5.058-.691-5.154-1.982-5.154c-1.321,0-2.013,1.761-2.013,5.17Z"/><path class="e" d="M349.568,77.108c-.323,.112-.385,.208-.677,.912l-2.273,5.827c-.262,.672-.339,.815-.461,.815-.108,0-.169-.111-.399-.72l-1.491-3.97-1.844,4.033c-.199,.448-.322,.656-.415,.656-.107,0-.23-.224-.43-.735l-2.213-5.747c-.369-.864-.507-1.04-.876-1.072v-.24h2.966v.24c-.584,.064-.769,.208-.769,.561,0,.176,.046,.336,.107,.512l1.629,4.386,1.49-3.345c-.092-.305-.215-.625-.322-.944-.322-.913-.522-1.104-1.137-1.169v-.24h3.334v.24c-.769,.112-.953,.24-.953,.608q0,.224,.292,.992l1.383,3.777,1.476-3.745c.185-.433,.276-.849,.276-1.104,0-.288-.169-.416-.891-.528v-.24h2.197v.24Z"/><path class="e" d="M351.47,84.695c0-.128-.092-.224-.215-.224-.016,0-.031,0-.107,.032-.093,.016-.2,.031-.308,.031-.568,0-.906-.304-.906-.816,0-.544,.368-.912,.906-.912,.691,0,1.229,.624,1.229,1.425,0,.96-.691,1.937-1.721,2.465l-.139-.304c.83-.593,1.26-1.185,1.26-1.697Z"/></g><g><path class="e" d="M17.517,102.6l-.062-.048v-1.072c-.554,.784-1.168,1.12-2.06,1.12-1.705,0-2.996-1.568-2.996-3.617,0-2.273,1.506-4.274,3.365-4.274,.646,0,1.075,.177,1.69,.721v-2.161c0-.656-.139-.816-.707-.816-.123,0-.215,0-.338,.017v-.257c.983-.271,1.521-.432,2.259-.704l.076,.032v9.075c0,.736,.123,.913,.677,.913,.062,0,.153,0,.354-.017v.257l-2.259,.832Zm-1.706-7.491c-1.229,0-2.059,1.297-2.059,3.201,0,1.969,.938,3.474,2.273,3.474,.477,0,.907-.176,1.184-.513,.169-.176,.276-.384,.276-.512v-3.665c0-1.153-.799-1.985-1.675-1.985Z"/><path class="e" d="M23.321,102.6c-1.844,0-3.012-1.44-3.012-3.762,0-1.376,.431-2.577,1.199-3.266,.614-.576,1.367-.864,2.166-.864,.846,0,1.583,.353,2.074,.944,.399,.545,.569,1.024,.691,2.129l-5.009-.016c.046,1.04,.153,1.616,.445,2.257,.477,.96,1.214,1.473,2.136,1.473,1.03,0,1.798-.496,2.566-1.776l.169,.08c-.676,1.809-1.875,2.801-3.427,2.801Zm-.107-7.363c-.983,0-1.567,.624-1.736,1.985h3.35c-.215-1.505-.63-1.985-1.613-1.985Z"/><path class="e" d="M33.337,96.421l-2.166,5.41c-.246,.608-.369,.832-.477,.832-.139,0-.276-.368-.461-.784l-2.059-4.834c-.738-1.744-.892-1.889-1.537-1.921v-.256h3.242v.256c-.6,.049-.783,.16-.783,.465,0,.144,.062,.384,.153,.624l1.782,4.434,1.752-4.481c.062-.176,.107-.336,.107-.513,0-.319-.261-.479-.799-.528v-.256h2.351v.256c-.507,.049-.614,.16-1.106,1.297Z"/><path class="e" d="M37.575,102.6c-1.844,0-3.012-1.44-3.012-3.762,0-1.376,.431-2.577,1.199-3.266,.614-.576,1.367-.864,2.166-.864,.846,0,1.583,.353,2.074,.944,.399,.545,.569,1.024,.691,2.129l-5.009-.016c.046,1.04,.153,1.616,.445,2.257,.477,.96,1.214,1.473,2.136,1.473,1.03,0,1.798-.496,2.566-1.776l.169,.08c-.676,1.809-1.875,2.801-3.427,2.801Zm-.107-7.363c-.983,0-1.567,.624-1.736,1.985h3.35c-.215-1.505-.63-1.985-1.613-1.985Z"/><path class="e" d="M42.214,101.047v-7.635c0-.753-.153-.977-.646-.977-.123,0-.308,.016-.477,.032h-.092v-.257c1.061-.271,1.645-.432,2.443-.704l.062,.032v9.556c.015,.896,.184,1.057,1.152,1.104v.24h-3.627v-.24c.953-.063,1.168-.288,1.184-1.152Z"/><path class="e" d="M52.322,98.502c0,2.337-1.552,4.098-3.58,4.098s-3.534-1.681-3.534-3.97c0-2.321,1.444-3.922,3.564-3.922,2.06,0,3.55,1.569,3.55,3.794Zm-5.7-.704c0,1.185,.261,2.433,.722,3.297,.338,.673,.968,1.104,1.598,1.104,1.215,0,1.967-1.185,1.967-3.105,0-2.305-.998-3.985-2.351-3.985-1.152,0-1.936,1.089-1.936,2.689Z"/><path class="e" d="M53.933,104.536v-7.971c0-.753-.107-.913-.63-.913-.138,0-.246,0-.384,.017v-.256c.845-.272,1.383-.48,2.213-.816l.092,.031v1.393c.707-.912,1.414-1.312,2.32-1.312,1.567,0,2.704,1.489,2.704,3.569,0,2.434-1.475,4.322-3.396,4.322-.676,0-1.045-.16-1.629-.721v2.545c.016,1.024,.2,1.185,1.353,1.201v.288h-3.719v-.272c.906-.096,1.075-.256,1.075-1.104Zm2.966-2.417c1.168,0,1.998-1.312,1.998-3.169,0-2.001-.814-3.298-2.028-3.298-.738,0-1.675,.625-1.675,1.121v4.226c0,.496,.952,1.12,1.705,1.12Z"/><path class="e" d="M64.117,102.6c-1.844,0-3.012-1.44-3.012-3.762,0-1.376,.431-2.577,1.199-3.266,.614-.576,1.367-.864,2.166-.864,.846,0,1.583,.353,2.074,.944,.399,.545,.569,1.024,.691,2.129l-5.009-.016c.046,1.04,.153,1.616,.445,2.257,.477,.96,1.214,1.473,2.136,1.473,1.03,0,1.798-.496,2.566-1.776l.169,.08c-.676,1.809-1.875,2.801-3.427,2.801Zm-.107-7.363c-.983,0-1.567,.624-1.736,1.985h3.35c-.215-1.505-.63-1.985-1.613-1.985Z"/><path class="e" d="M73.058,102.6l-.062-.048v-1.072c-.554,.784-1.168,1.12-2.06,1.12-1.705,0-2.996-1.568-2.996-3.617,0-2.273,1.506-4.274,3.365-4.274,.646,0,1.075,.177,1.69,.721v-2.161c0-.656-.139-.816-.707-.816-.123,0-.215,0-.338,.017v-.257c.983-.271,1.521-.432,2.259-.704l.076,.032v9.075c0,.736,.123,.913,.677,.913,.062,0,.153,0,.354-.017v.257l-2.259,.832Zm-1.706-7.491c-1.229,0-2.059,1.297-2.059,3.201,0,1.969,.938,3.474,2.273,3.474,.477,0,.907-.176,1.184-.513,.169-.176,.276-.384,.276-.512v-3.665c0-1.153-.799-1.985-1.675-1.985Z"/><path class="e" d="M80.429,100.807v-4.193c0-.704-.139-.961-.507-.961-.139,0-.338,.017-.522,.049l-.123,.016v-.24l2.382-.88,.062,.048v6.162c.015,1.169,.122,1.312,1.137,1.393v.24h-3.642v-.24c1.045-.048,1.214-.208,1.214-1.393Zm1.306-8.483c0,.464-.338,.816-.799,.816-.43,0-.769-.353-.769-.816,0-.448,.354-.816,.769-.816,.445,0,.799,.353,.799,.816Z"/><path class="e" d="M84.453,100.935v-4.178c0-.816-.138-1.072-.676-1.072-.169,0-.338,.017-.43,.064v-.288c.891-.272,1.429-.448,2.228-.753l.107,.032v1.329c1.106-1.073,1.829-1.361,2.566-1.361,1.198,0,1.905,.944,1.905,2.529v3.842c.016,.816,.199,1.024,.983,1.104v.256h-3.35v-.256c.86-.048,1.091-.32,1.091-1.409v-3.505c0-1.121-.384-1.633-1.245-1.633-.691,0-1.137,.192-1.905,.96v4.723c0,.592,.262,.816,1.076,.864v.256h-3.427v-.256c.892-.048,1.075-.272,1.075-1.249Z"/><path class="e" d="M100.553,101.815c-.584,.512-1.229,.784-1.967,.784-1.783,0-3.059-1.568-3.059-3.729,0-1.345,.446-2.481,1.261-3.233,.66-.592,1.475-.929,2.273-.929,1.353,0,2.489,.784,2.489,1.729,0,.384-.338,.704-.768,.704-.354,0-.615-.32-.753-.816l-.093-.385c-.169-.624-.384-.816-.983-.816-1.306,0-2.228,1.233-2.228,2.978,0,1.937,1.06,3.346,2.551,3.346,.922,0,1.536-.433,2.319-1.601l.17,.111c-.477,.993-.784,1.473-1.214,1.857Z"/><path class="e" d="M103.055,101.047v-7.635c0-.753-.153-.977-.646-.977-.123,0-.308,.016-.477,.032h-.092v-.257c1.061-.271,1.645-.432,2.443-.704l.062,.032v9.556c.015,.896,.184,1.057,1.152,1.104v.24h-3.627v-.24c.953-.063,1.168-.288,1.184-1.152Z"/><path class="e" d="M113.179,98.502c0,2.337-1.552,4.098-3.58,4.098s-3.534-1.681-3.534-3.97c0-2.321,1.444-3.922,3.564-3.922,2.06,0,3.55,1.569,3.55,3.794Zm-5.7-.704c0,1.185,.261,2.433,.722,3.297,.338,.673,.968,1.104,1.598,1.104,1.214,0,1.967-1.185,1.967-3.105,0-2.305-.998-3.985-2.351-3.985-1.152,0-1.936,1.089-1.936,2.689Z"/><path class="e" d="M116.633,94.933c-.752,0-1.274,.464-1.274,1.168,0,.465,.261,.977,.706,1.249l1.783,1.104c.952,.592,1.321,1.088,1.321,1.952,0,1.201-.969,2.193-2.352,2.193-.322,0-.66-.064-1.106-.176-.384-.097-.583-.129-.753-.129-.199,0-.276,.032-.384,.209h-.215v-2.674h.261c.385,1.745,.953,2.386,2.09,2.386,.846,0,1.368-.48,1.368-1.233,0-.527-.277-.944-.861-1.28l-.952-.56c-1.398-.833-1.921-1.505-1.921-2.466,0-1.248,.938-2.129,2.243-2.129,.385,0,.769,.08,1.152,.225,.169,.08,.339,.112,.431,.112s.169-.049,.276-.192h.169l.077,2.353h-.246c-.384-1.536-.876-2.112-1.813-2.112Z"/><path class="e" d="M123.392,102.6c-1.844,0-3.012-1.44-3.012-3.762,0-1.376,.431-2.577,1.199-3.266,.614-.576,1.367-.864,2.166-.864,.846,0,1.583,.353,2.074,.944,.399,.545,.569,1.024,.691,2.129l-5.009-.016c.046,1.04,.153,1.616,.445,2.257,.477,.96,1.214,1.473,2.136,1.473,1.03,0,1.798-.496,2.566-1.776l.169,.08c-.676,1.809-1.875,2.801-3.427,2.801Zm-.107-7.363c-.983,0-1.567,.624-1.736,1.985h3.35c-.215-1.505-.63-1.985-1.613-1.985Z"/><path class="e" d="M135.957,102.6l-.062-.048v-1.072c-.554,.784-1.168,1.12-2.06,1.12-1.705,0-2.996-1.568-2.996-3.617,0-2.273,1.506-4.274,3.365-4.274,.646,0,1.075,.177,1.69,.721v-2.161c0-.656-.139-.816-.707-.816-.123,0-.215,0-.338,.017v-.257c.983-.271,1.521-.432,2.259-.704l.076,.032v9.075c0,.736,.123,.913,.677,.913,.062,0,.153,0,.354-.017v.257l-2.259,.832Zm-1.706-7.491c-1.229,0-2.059,1.297-2.059,3.201,0,1.969,.938,3.474,2.273,3.474,.477,0,.907-.176,1.184-.513,.169-.176,.276-.384,.276-.512v-3.665c0-1.153-.799-1.985-1.675-1.985Z"/><path class="e" d="M139.703,100.807v-4.193c0-.704-.139-.961-.507-.961-.139,0-.338,.017-.522,.049l-.123,.016v-.24l2.382-.88,.062,.048v6.162c.015,1.169,.122,1.312,1.137,1.393v.24h-3.642v-.24c1.045-.048,1.214-.208,1.214-1.393Zm1.306-8.483c0,.464-.338,.816-.799,.816-.43,0-.769-.353-.769-.816,0-.448,.354-.816,.769-.816,.445,0,.799,.353,.799,.816Z"/><path class="e" d="M147.83,102.6c-.66,0-.86-.336-.938-1.232-.998,.88-1.598,1.232-2.458,1.232-.983,0-1.69-.736-1.69-1.793,0-.561,.23-1.137,.584-1.473,.691-.64,1.061-.769,3.534-1.809v-1.024c0-.912-.522-1.393-1.306-1.393-.646,0-1.168,.368-1.168,.816,0,.128,.015,.256,.046,.4,.016,.128,.03,.208,.03,.271,0,.368-.338,.705-.722,.705s-.691-.337-.691-.721c0-1.057,1.198-1.873,2.704-1.873,.953,0,1.645,.305,2.013,.913,.23,.399,.323,.896,.323,1.776v3.266c0,.736,.107,.976,.477,.976,.245,0,.43-.079,.706-.319v.448c-.568,.624-.906,.832-1.444,.832Zm-3.749-2.337v.063c0,.721,.461,1.297,1.168,1.297,.491,0,.799-.128,1.198-.368,.338-.208,.415-.384,.415-.896v-2.433c-1.875,.688-2.781,1.328-2.781,2.337Z"/><path class="e" d="M150.624,101.047v-7.635c0-.753-.153-.977-.646-.977-.123,0-.308,.016-.477,.032h-.092v-.257c1.061-.271,1.645-.432,2.443-.704l.062,.032v9.556c.015,.896,.184,1.057,1.152,1.104v.24h-3.627v-.24c.953-.063,1.168-.288,1.184-1.152Z"/><path class="e" d="M160.732,98.502c0,2.337-1.552,4.098-3.58,4.098s-3.534-1.681-3.534-3.97c0-2.321,1.444-3.922,3.564-3.922,2.06,0,3.55,1.569,3.55,3.794Zm-5.7-.704c0,1.185,.261,2.433,.722,3.297,.338,.673,.968,1.104,1.598,1.104,1.215,0,1.967-1.185,1.967-3.105,0-2.305-.998-3.985-2.351-3.985-1.152,0-1.936,1.089-1.936,2.689Z"/><path class="e" d="M167.122,97.333c0,.833-.246,1.425-.784,1.889-.491,.465-1.137,.721-1.736,.721-.03,0-.338-.048-.922-.096-.43,.144-.968,.72-.968,1.056,0,.272,.384,.433,1.26,.465l2.075,.096c1.198,.048,1.967,.753,1.967,1.793,0,.641-.277,1.185-.892,1.696-.845,.721-2.105,1.152-3.304,1.152-1.552,0-2.797-.736-2.797-1.632,0-.625,.415-1.169,1.583-2.049-.676-.337-.86-.528-.86-.896,0-.288,.092-.465,.445-.833,.046-.063,.23-.256,.568-.592l.431-.4c-1.091-.56-1.506-1.2-1.506-2.257,0-1.536,1.198-2.737,2.688-2.737,.522,0,.969,.128,1.645,.385,.322,.128,.354,.176,.354,.176h1.782v.656h-1.337c.23,.528,.308,.912,.308,1.408Zm-4.979,6.579c0,.752,.922,1.232,2.366,1.232,1.813,0,3.042-.656,3.042-1.633,0-.608-.537-.816-1.997-.816-.799,0-2.059-.111-2.612-.224-.646,.8-.799,1.057-.799,1.44Zm2.551-4.354c.737,0,1.214-.625,1.214-1.553,0-.673-.185-1.473-.492-2.065-.261-.496-.706-.8-1.214-.8-.737,0-1.214,.608-1.214,1.601v.063c0,1.633,.677,2.754,1.706,2.754Z"/><path class="e" d="M174.31,102.584l-.076-.032v-1.393l-.691,.72c-.431,.448-1.214,.721-1.891,.721-1.183,0-1.951-.864-1.951-2.177v-4.242c0-.8-.246-1.04-.999-1.072v-.24h2.274v5.475c0,.704,.6,1.28,1.383,1.28,.554,0,1.061-.192,1.49-.576,.23-.176,.308-.416,.308-.88v-3.954c0-.832-.185-1.009-1.198-1.057v-.288h2.474v5.763c.016,.8,.215,.929,.999,.96h.076v.24c-.813,.225-1.397,.416-2.197,.753Z"/><path class="e" d="M180.284,102.6c-1.844,0-3.012-1.44-3.012-3.762,0-1.376,.431-2.577,1.199-3.266,.614-.576,1.367-.864,2.166-.864,.846,0,1.583,.353,2.074,.944,.399,.545,.569,1.024,.691,2.129l-5.009-.016c.046,1.04,.153,1.616,.445,2.257,.477,.96,1.214,1.473,2.136,1.473,1.03,0,1.798-.496,2.566-1.776l.169,.08c-.676,1.809-1.875,2.801-3.427,2.801Zm-.107-7.363c-.983,0-1.567,.624-1.736,1.985h3.35c-.215-1.505-.63-1.985-1.613-1.985Z"/><path class="e" d="M198.75,95.108c-.323,.112-.385,.208-.677,.912l-2.273,5.827c-.262,.672-.339,.815-.461,.815-.108,0-.169-.111-.399-.72l-1.491-3.97-1.844,4.033c-.199,.448-.322,.656-.415,.656-.107,0-.23-.224-.43-.735l-2.213-5.747c-.369-.864-.507-1.04-.876-1.072v-.24h2.966v.24c-.584,.064-.769,.208-.769,.561,0,.176,.046,.336,.107,.512l1.629,4.386,1.49-3.345c-.092-.305-.215-.625-.322-.944-.322-.913-.522-1.104-1.137-1.169v-.24h3.334v.24c-.769,.112-.953,.24-.953,.608q0,.224,.292,.992l1.383,3.777,1.476-3.745c.185-.433,.276-.849,.276-1.104,0-.288-.169-.416-.891-.528v-.24h2.197v.24Z"/><path class="e" d="M200.344,100.807v-4.193c0-.704-.139-.961-.507-.961-.139,0-.338,.017-.522,.049l-.123,.016v-.24l2.382-.88,.062,.048v6.162c.015,1.169,.122,1.312,1.137,1.393v.24h-3.642v-.24c1.045-.048,1.214-.208,1.214-1.393Zm1.306-8.483c0,.464-.338,.816-.799,.816-.43,0-.769-.353-.769-.816,0-.448,.354-.816,.769-.816,.445,0,.799,.353,.799,.816Z"/><path class="e" d="M205.244,95.333v4.993c0,1.009,.23,1.441,.799,1.441,.338,0,.584-.145,.922-.561l.2,.176c-.507,.833-1.091,1.217-1.844,1.217-.907,0-1.368-.688-1.368-2.033v-5.233h-.814c-.046-.032-.062-.064-.062-.112,0-.097,.093-.192,.262-.305,.445-.271,.906-.816,1.798-2.16,.077,0,.107,.048,.107,.208v1.856h1.552v.513h-1.552Z"/><path class="e" d="M211.542,102.439v-.256c.922-.08,1.091-.272,1.091-1.457v-3.329c0-1.169-.399-1.776-1.229-1.776-.63,0-1.183,.319-1.828,1.056v4.13c.03,1.137,.153,1.312,1.045,1.393v.24h-3.319v-.24c.876-.112,.953-.24,.983-1.393v-7.539c0-.688-.123-.816-.783-.816-.077,0-.123,0-.185,.017v-.257l.415-.128c.86-.256,1.244-.384,1.767-.576l.077,.048v4.562c.707-.961,1.413-1.409,2.366-1.409,1.321,0,1.982,.913,1.982,2.674v3.345c.03,1.185,.107,1.312,.968,1.457v.256h-3.35Z"/><path class="e" d="M221.11,95.333v4.993c0,1.009,.23,1.441,.799,1.441,.338,0,.584-.145,.922-.561l.2,.176c-.507,.833-1.091,1.217-1.844,1.217-.907,0-1.368-.688-1.368-2.033v-5.233h-.814c-.046-.032-.062-.064-.062-.112,0-.097,.093-.192,.262-.305,.445-.271,.906-.816,1.798-2.16,.077,0,.107,.048,.107,.208v1.856h1.552v.513h-1.552Z"/><path class="e" d="M227.409,102.439v-.256c.922-.08,1.091-.272,1.091-1.457v-3.329c0-1.169-.399-1.776-1.229-1.776-.63,0-1.183,.319-1.828,1.056v4.13c.03,1.137,.153,1.312,1.045,1.393v.24h-3.319v-.24c.876-.112,.953-.24,.983-1.393v-7.539c0-.688-.123-.816-.783-.816-.077,0-.123,0-.185,.017v-.257l.415-.128c.86-.256,1.244-.384,1.767-.576l.077,.048v4.562c.707-.961,1.413-1.409,2.366-1.409,1.321,0,1.982,.913,1.982,2.674v3.345c.03,1.185,.107,1.312,.968,1.457v.256h-3.35Z"/><path class="e" d="M234.551,102.6c-1.844,0-3.012-1.44-3.012-3.762,0-1.376,.431-2.577,1.199-3.266,.614-.576,1.367-.864,2.166-.864,.846,0,1.583,.353,2.074,.944,.399,.545,.569,1.024,.691,2.129l-5.009-.016c.046,1.04,.153,1.616,.445,2.257,.477,.96,1.214,1.473,2.136,1.473,1.03,0,1.798-.496,2.566-1.776l.169,.08c-.676,1.809-1.875,2.801-3.427,2.801Zm-.107-7.363c-.983,0-1.567,.624-1.736,1.985h3.35c-.215-1.505-.63-1.985-1.613-1.985Z"/><path class="e" d="M247.254,102.6c-.66,0-.86-.336-.938-1.232-.998,.88-1.598,1.232-2.458,1.232-.983,0-1.69-.736-1.69-1.793,0-.561,.23-1.137,.584-1.473,.691-.64,1.061-.769,3.534-1.809v-1.024c0-.912-.522-1.393-1.306-1.393-.646,0-1.168,.368-1.168,.816,0,.128,.015,.256,.046,.4,.016,.128,.03,.208,.03,.271,0,.368-.338,.705-.722,.705s-.691-.337-.691-.721c0-1.057,1.198-1.873,2.704-1.873,.953,0,1.645,.305,2.013,.913,.23,.399,.323,.896,.323,1.776v3.266c0,.736,.107,.976,.477,.976,.245,0,.43-.079,.706-.319v.448c-.568,.624-.906,.832-1.444,.832Zm-3.749-2.337v.063c0,.721,.461,1.297,1.168,1.297,.491,0,.799-.128,1.198-.368,.338-.208,.415-.384,.415-.896v-2.433c-1.875,.688-2.781,1.328-2.781,2.337Z"/><path class="e" d="M250.202,101.031v-4.69c0-.736-.153-1.008-.63-1.008-.199,0-.338,.016-.568,.08v-.272c.953-.32,1.536-.544,2.382-.912l.092,.031v1.825c.83-1.265,1.321-1.665,2.028-1.665,.584,0,.938,.353,.938,.944,0,.496-.261,.784-.661,.784-.23,0-.399-.096-.676-.352-.199-.176-.338-.256-.445-.256-.477,0-1.184,.88-1.184,1.44v3.953c.031,.977,.292,1.217,1.368,1.249v.256h-3.872v-.256c1.091-.177,1.183-.288,1.229-1.152Z"/><path class="e" d="M257.268,95.333v4.993c0,1.009,.23,1.441,.799,1.441,.338,0,.584-.145,.922-.561l.2,.176c-.507,.833-1.091,1.217-1.844,1.217-.907,0-1.368-.688-1.368-2.033v-5.233h-.814c-.046-.032-.062-.064-.062-.112,0-.097,.093-.192,.262-.305,.445-.271,.906-.816,1.798-2.16,.077,0,.107,.048,.107,.208v1.856h1.552v.513h-1.552Z"/><path class="e" d="M260.509,100.807v-4.193c0-.704-.139-.961-.507-.961-.139,0-.338,.017-.522,.049l-.123,.016v-.24l2.382-.88,.062,.048v6.162c.015,1.169,.122,1.312,1.137,1.393v.24h-3.642v-.24c1.045-.048,1.214-.208,1.214-1.393Zm1.306-8.483c0,.464-.338,.816-.799,.816-.43,0-.769-.353-.769-.816,0-.448,.354-.816,.769-.816,.445,0,.799,.353,.799,.816Z"/><path class="e" d="M266.207,94.933c-.752,0-1.274,.464-1.274,1.168,0,.465,.261,.977,.706,1.249l1.783,1.104c.952,.592,1.321,1.088,1.321,1.952,0,1.201-.969,2.193-2.352,2.193-.322,0-.66-.064-1.106-.176-.384-.097-.583-.129-.753-.129-.199,0-.276,.032-.384,.209h-.215v-2.674h.261c.385,1.745,.953,2.386,2.09,2.386,.846,0,1.368-.48,1.368-1.233,0-.527-.277-.944-.861-1.28l-.952-.56c-1.398-.833-1.921-1.505-1.921-2.466,0-1.248,.938-2.129,2.243-2.129,.385,0,.769,.08,1.152,.225,.169,.08,.339,.112,.431,.112s.169-.049,.276-.192h.169l.077,2.353h-.246c-.384-1.536-.876-2.112-1.813-2.112Z"/><path class="e" d="M271.537,95.333v4.993c0,1.009,.23,1.441,.799,1.441,.338,0,.584-.145,.922-.561l.2,.176c-.507,.833-1.091,1.217-1.844,1.217-.907,0-1.368-.688-1.368-2.033v-5.233h-.814c-.046-.032-.062-.064-.062-.112,0-.097,.093-.192,.262-.305,.445-.271,.906-.816,1.798-2.16,.077,0,.107,.048,.107,.208v1.856h1.552v.513h-1.552Z"/><path class="e" d="M275.484,93.508c0-.128-.092-.224-.215-.224-.016,0-.03,0-.107,.031-.092,.017-.2,.032-.308,.032-.568,0-.906-.304-.906-.816,0-.544,.369-.912,.906-.912,.691,0,1.229,.624,1.229,1.425,0,.96-.691,1.937-1.721,2.465l-.139-.305c.83-.592,1.26-1.168,1.26-1.696Z"/><path class="e" d="M280.046,94.933c-.753,0-1.274,.464-1.274,1.168,0,.465,.261,.977,.706,1.249l1.782,1.104c.953,.592,1.322,1.088,1.322,1.952,0,1.201-.969,2.193-2.352,2.193-.322,0-.66-.064-1.106-.176-.384-.097-.583-.129-.753-.129-.199,0-.276,.032-.384,.209h-.215v-2.674h.261c.385,1.745,.953,2.386,2.09,2.386,.846,0,1.368-.48,1.368-1.233,0-.527-.277-.944-.861-1.28l-.952-.56c-1.398-.833-1.921-1.505-1.921-2.466,0-1.248,.938-2.129,2.243-2.129,.385,0,.769,.08,1.152,.225,.169,.08,.339,.112,.431,.112s.169-.049,.276-.192h.169l.077,2.353h-.246c-.384-1.536-.876-2.112-1.813-2.112Z"/><path class="e" d="M293.856,96.421l-2.166,5.41c-.246,.608-.369,.832-.477,.832-.139,0-.276-.368-.461-.784l-2.059-4.834c-.738-1.744-.892-1.889-1.537-1.921v-.256h3.242v.256c-.6,.049-.783,.16-.783,.465,0,.144,.062,.384,.153,.624l1.782,4.434,1.752-4.481c.062-.176,.107-.336,.107-.513,0-.319-.261-.479-.799-.528v-.256h2.351v.256c-.507,.049-.614,.16-1.106,1.297Z"/><path class="e" d="M296.573,100.807v-4.193c0-.704-.139-.961-.507-.961-.139,0-.338,.017-.522,.049l-.123,.016v-.24l2.382-.88,.062,.048v6.162c.015,1.169,.122,1.312,1.137,1.393v.24h-3.642v-.24c1.045-.048,1.214-.208,1.214-1.393Zm1.306-8.483c0,.464-.338,.816-.799,.816-.43,0-.769-.353-.769-.816,0-.448,.354-.816,.769-.816,.445,0,.799,.353,.799,.816Z"/><path class="e" d="M302.271,94.933c-.752,0-1.274,.464-1.274,1.168,0,.465,.261,.977,.706,1.249l1.783,1.104c.952,.592,1.321,1.088,1.321,1.952,0,1.201-.969,2.193-2.352,2.193-.322,0-.66-.064-1.106-.176-.384-.097-.583-.129-.753-.129-.199,0-.276,.032-.384,.209h-.215v-2.674h.261c.385,1.745,.953,2.386,2.09,2.386,.846,0,1.368-.48,1.368-1.233,0-.527-.277-.944-.861-1.28l-.952-.56c-1.398-.833-1.921-1.505-1.921-2.466,0-1.248,.938-2.129,2.243-2.129,.385,0,.769,.08,1.152,.225,.169,.08,.339,.112,.431,.112s.169-.049,.276-.192h.169l.077,2.353h-.246c-.384-1.536-.876-2.112-1.813-2.112Z"/><path class="e" d="M311.412,102.584l-.076-.032v-1.393l-.691,.72c-.431,.448-1.214,.721-1.891,.721-1.183,0-1.951-.864-1.951-2.177v-4.242c0-.8-.246-1.04-.999-1.072v-.24h2.274v5.475c0,.704,.6,1.28,1.383,1.28,.554,0,1.061-.192,1.49-.576,.23-.176,.308-.416,.308-.88v-3.954c0-.832-.185-1.009-1.198-1.057v-.288h2.474v5.763c.016,.8,.215,.929,.999,.96h.076v.24c-.814,.225-1.397,.416-2.197,.753Z"/><path class="e" d="M319.415,102.6c-.66,0-.86-.336-.938-1.232-.998,.88-1.598,1.232-2.458,1.232-.983,0-1.69-.736-1.69-1.793,0-.561,.23-1.137,.584-1.473,.691-.64,1.061-.769,3.534-1.809v-1.024c0-.912-.522-1.393-1.306-1.393-.646,0-1.168,.368-1.168,.816,0,.128,.015,.256,.046,.4,.016,.128,.03,.208,.03,.271,0,.368-.338,.705-.722,.705s-.691-.337-.691-.721c0-1.057,1.198-1.873,2.704-1.873,.953,0,1.645,.305,2.013,.913,.23,.399,.323,.896,.323,1.776v3.266c0,.736,.107,.976,.476,.976,.246,0,.431-.079,.707-.319v.448c-.568,.624-.906,.832-1.444,.832Zm-3.749-2.337v.063c0,.721,.461,1.297,1.168,1.297,.491,0,.799-.128,1.198-.368,.338-.208,.415-.384,.415-.896v-2.433c-1.875,.688-2.781,1.328-2.781,2.337Z"/><path class="e" d="M322.225,101.047v-7.635c0-.753-.153-.977-.646-.977-.123,0-.308,.016-.477,.032h-.092v-.257c1.061-.271,1.645-.432,2.443-.704l.062,.032v9.556c.015,.896,.184,1.057,1.152,1.104v.24h-3.627v-.24c.953-.063,1.168-.288,1.184-1.152Z"/><path class="e" d="M334.037,102.6c-.66,0-.86-.336-.938-1.232-.998,.88-1.598,1.232-2.458,1.232-.983,0-1.69-.736-1.69-1.793,0-.561,.23-1.137,.584-1.473,.691-.64,1.061-.769,3.534-1.809v-1.024c0-.912-.522-1.393-1.306-1.393-.646,0-1.168,.368-1.168,.816,0,.128,.015,.256,.046,.4,.016,.128,.03,.208,.03,.271,0,.368-.338,.705-.722,.705s-.691-.337-.691-.721c0-1.057,1.198-1.873,2.704-1.873,.953,0,1.645,.305,2.013,.913,.23,.399,.323,.896,.323,1.776v3.266c0,.736,.107,.976,.477,.976,.245,0,.43-.079,.706-.319v.448c-.568,.624-.906,.832-1.444,.832Zm-3.749-2.337v.063c0,.721,.461,1.297,1.168,1.297,.491,0,.799-.128,1.198-.368,.338-.208,.415-.384,.415-.896v-2.433c-1.875,.688-2.781,1.328-2.781,2.337Z"/><path class="e" d="M336.877,100.935v-4.178c0-.816-.138-1.072-.676-1.072-.169,0-.338,.017-.43,.064v-.288c.891-.272,1.429-.448,2.228-.753l.107,.032v1.329c1.106-1.073,1.829-1.361,2.566-1.361,1.198,0,1.905,.944,1.905,2.529v3.842c.016,.816,.199,1.024,.983,1.104v.256h-3.35v-.256c.86-.048,1.091-.32,1.091-1.409v-3.505c0-1.121-.384-1.633-1.245-1.633-.691,0-1.137,.192-1.905,.96v4.723c0,.592,.262,.816,1.076,.864v.256h-3.427v-.256c.892-.048,1.075-.272,1.075-1.249Z"/><path class="e" d="M349.244,102.6l-.062-.048v-1.072c-.554,.784-1.168,1.12-2.06,1.12-1.705,0-2.996-1.568-2.996-3.617,0-2.273,1.506-4.274,3.365-4.274,.646,0,1.075,.177,1.69,.721v-2.161c0-.656-.139-.816-.707-.816-.123,0-.215,0-.338,.017v-.257c.983-.271,1.521-.432,2.259-.704l.076,.032v9.075c0,.736,.123,.913,.677,.913,.062,0,.153,0,.354-.017v.257l-2.259,.832Zm-1.706-7.491c-1.229,0-2.059,1.297-2.059,3.201,0,1.969,.938,3.474,2.273,3.474,.477,0,.907-.176,1.184-.513,.169-.176,.276-.384,.276-.512v-3.665c0-1.153-.799-1.985-1.675-1.985Z"/></g><g><path class="e" d="M15.211,112.933c-.752,0-1.274,.464-1.274,1.168,0,.465,.261,.977,.706,1.249l1.783,1.104c.952,.592,1.321,1.088,1.321,1.952,0,1.201-.969,2.193-2.352,2.193-.322,0-.66-.064-1.106-.176-.384-.097-.583-.129-.753-.129-.199,0-.276,.032-.384,.209h-.215v-2.674h.261c.385,1.745,.953,2.386,2.09,2.386,.846,0,1.368-.48,1.368-1.233,0-.527-.277-.944-.861-1.28l-.952-.56c-1.398-.833-1.921-1.505-1.921-2.466,0-1.248,.938-2.129,2.243-2.129,.385,0,.769,.08,1.152,.225,.169,.08,.339,.112,.431,.112s.169-.049,.276-.192h.169l.077,2.353h-.246c-.384-1.536-.876-2.112-1.813-2.112Z"/><path class="e" d="M25.919,116.502c0,2.337-1.552,4.098-3.58,4.098s-3.534-1.681-3.534-3.97c0-2.321,1.444-3.922,3.564-3.922,2.06,0,3.55,1.569,3.55,3.794Zm-5.7-.704c0,1.185,.261,2.433,.722,3.297,.338,.673,.968,1.104,1.598,1.104,1.214,0,1.967-1.185,1.967-3.105,0-2.305-.998-3.985-2.351-3.985-1.152,0-1.936,1.089-1.936,2.689Z"/><path class="e" d="M27.698,118.935v-4.178c0-.816-.138-1.072-.676-1.072-.169,0-.338,.017-.43,.064v-.288c.891-.272,1.429-.448,2.228-.753l.107,.032v1.329c1.106-1.073,1.829-1.361,2.566-1.361,1.198,0,1.905,.944,1.905,2.529v3.842c.016,.816,.199,1.024,.983,1.104v.256h-3.35v-.256c.86-.048,1.091-.32,1.091-1.409v-3.505c0-1.121-.384-1.633-1.245-1.633-.691,0-1.137,.192-1.905,.96v4.723c0,.592,.262,.816,1.076,.864v.256h-3.427v-.256c.892-.048,1.075-.272,1.075-1.249Z"/><path class="e" d="M36.101,118.807v-4.193c0-.704-.139-.961-.507-.961-.139,0-.338,.017-.522,.049l-.123,.016v-.24l2.382-.88,.062,.048v6.162c.015,1.169,.122,1.312,1.137,1.393v.24h-3.642v-.24c1.045-.048,1.214-.208,1.214-1.393Zm1.306-8.483c0,.464-.338,.816-.799,.816-.43,0-.769-.353-.769-.816,0-.448,.354-.816,.769-.816,.445,0,.799,.353,.799,.816Z"/><path class="e" d="M44.228,119.815c-.584,.512-1.229,.784-1.967,.784-1.783,0-3.059-1.568-3.059-3.729,0-1.345,.446-2.481,1.261-3.233,.66-.592,1.475-.929,2.273-.929,1.353,0,2.489,.784,2.489,1.729,0,.384-.338,.704-.768,.704-.354,0-.615-.32-.753-.816l-.093-.385c-.169-.624-.384-.816-.983-.816-1.306,0-2.228,1.233-2.228,2.978,0,1.937,1.06,3.346,2.551,3.346,.922,0,1.536-.433,2.319-1.601l.17,.111c-.477,.993-.784,1.473-1.214,1.857Z"/><path class="e" d="M50.83,118.807v-4.193c0-.704-.139-.961-.507-.961-.139,0-.338,.017-.522,.049l-.123,.016v-.24l2.382-.88,.062,.048v6.162c.015,1.169,.122,1.312,1.137,1.393v.24h-3.642v-.24c1.045-.048,1.214-.208,1.214-1.393Zm1.306-8.483c0,.464-.338,.816-.799,.816-.43,0-.769-.353-.769-.816,0-.448,.354-.816,.769-.816,.445,0,.799,.353,.799,.816Z"/><path class="e" d="M58.819,120.6l-.062-.048v-1.072c-.554,.784-1.168,1.12-2.06,1.12-1.705,0-2.996-1.568-2.996-3.617,0-2.273,1.506-4.274,3.365-4.274,.646,0,1.075,.177,1.69,.721v-2.161c0-.656-.139-.816-.707-.816-.123,0-.215,0-.338,.017v-.257c.983-.271,1.521-.432,2.259-.704l.076,.032v9.075c0,.736,.123,.913,.677,.913,.062,0,.153,0,.354-.017v.257l-2.259,.832Zm-1.706-7.491c-1.229,0-2.059,1.297-2.059,3.201,0,1.969,.938,3.474,2.273,3.474,.477,0,.907-.176,1.184-.513,.169-.176,.276-.384,.276-.512v-3.665c0-1.153-.799-1.985-1.675-1.985Z"/><path class="e" d="M64.624,120.6c-1.844,0-3.012-1.44-3.012-3.762,0-1.376,.431-2.577,1.199-3.266,.614-.576,1.367-.864,2.166-.864,.846,0,1.583,.353,2.074,.944,.399,.545,.569,1.024,.691,2.129l-5.009-.016c.046,1.04,.153,1.616,.445,2.257,.477,.96,1.214,1.473,2.136,1.473,1.03,0,1.798-.496,2.566-1.776l.169,.08c-.676,1.809-1.875,2.801-3.427,2.801Zm-.107-7.363c-.983,0-1.567,.624-1.736,1.985h3.35c-.215-1.505-.63-1.985-1.613-1.985Z"/><path class="e" d="M69.6,118.935v-4.178c0-.816-.138-1.072-.676-1.072-.169,0-.338,.017-.43,.064v-.288c.891-.272,1.429-.448,2.228-.753l.107,.032v1.329c1.106-1.073,1.829-1.361,2.566-1.361,1.198,0,1.905,.944,1.905,2.529v3.842c.016,.816,.199,1.024,.983,1.104v.256h-3.35v-.256c.86-.048,1.091-.32,1.091-1.409v-3.505c0-1.121-.384-1.633-1.245-1.633-.691,0-1.137,.192-1.905,.96v4.723c0,.592,.262,.816,1.076,.864v.256h-3.427v-.256c.892-.048,1.075-.272,1.075-1.249Z"/><path class="e" d="M78.878,113.333v4.993c0,1.009,.23,1.441,.799,1.441,.338,0,.584-.145,.922-.561l.2,.176c-.507,.833-1.091,1.217-1.844,1.217-.907,0-1.368-.688-1.368-2.033v-5.233h-.814c-.046-.032-.062-.064-.062-.112,0-.097,.093-.192,.262-.305,.445-.271,.906-.816,1.798-2.16,.077,0,.107,.048,.107,.208v1.856h1.552v.513h-1.552Z"/><path class="e" d="M82.119,118.807v-4.193c0-.704-.139-.961-.507-.961-.139,0-.338,.017-.522,.049l-.123,.016v-.24l2.382-.88,.062,.048v6.162c.015,1.169,.122,1.312,1.137,1.393v.24h-3.642v-.24c1.045-.048,1.214-.208,1.214-1.393Zm1.306-8.483c0,.464-.338,.816-.799,.816-.43,0-.769-.353-.769-.816,0-.448,.354-.816,.769-.816,.445,0,.799,.353,.799,.816Z"/><path class="e" d="M87.034,113.333v4.993c0,1.009,.23,1.441,.799,1.441,.338,0,.584-.145,.922-.561l.2,.176c-.507,.833-1.091,1.217-1.844,1.217-.907,0-1.368-.688-1.368-2.033v-5.233h-.814c-.046-.032-.062-.064-.062-.112,0-.097,.093-.192,.262-.305,.445-.271,.906-.816,1.798-2.16,.077,0,.107,.048,.107,.208v1.856h1.552v.513h-1.552Z"/><path class="e" d="M96.099,113.893l-2.812,6.835c-.952,2.305-1.659,3.201-2.704,3.201-.661,0-1.122-.4-1.106-.929,.016-.399,.323-.704,.691-.704,.246,0,.507,.064,.784,.177,.169,.08,.307,.111,.399,.111,.215,0,.553-.304,.783-.704,.292-.496,.554-1.488,.568-1.744,0-.257-.153-.865-.584-1.697-.062-.176-.076-.208-.261-.64l-1.859-4.13c-.123-.288-.384-.48-.799-.545v-.239h3.334l-.015,.256c-.692,.032-.938,.16-.953,.464,0,.16,.046,.4,.153,.624l1.859,4.258,1.829-4.657c.046-.112,.076-.208,.076-.272,.016-.272-.245-.433-.753-.433v-.239h2.183v.239c-.4,.049-.584,.225-.814,.769Z"/><path class="e" d="M98.662,119.751c0,.48-.399,.864-.876,.864-.445,0-.83-.399-.83-.864,0-.512,.385-.912,.846-.912s.86,.416,.86,.912Z"/></g><g><path class="g" d="M14.243,156.823c0-.16-.092-.304-.322-.528-.292-.271-.385-.447-.385-.735,0-.448,.339-.753,.8-.753,.507,0,.906,.513,.906,1.169,0,.912-.707,1.809-2.013,2.561l-.139-.271c.814-.593,1.152-1.009,1.152-1.441Zm3.258,0c0-.16-.093-.304-.323-.528-.291-.271-.384-.447-.384-.735,0-.448,.338-.753,.799-.753,.508,0,.907,.513,.907,1.152,0,.929-.707,1.825-2.014,2.577l-.138-.271c.814-.577,1.152-1.009,1.152-1.441Z"/><path class="g" d="M27.071,146.771c-.339-.384-.8-.592-1.384-.592-1.06,0-1.705,.624-1.705,1.632,0,.801,.139,1.041,1.567,2.514,1.429,1.488,1.782,2.129,1.782,3.186,0,1.84-1.337,3.217-3.119,3.217-.492,0-.906-.096-1.629-.368-.415-.144-.63-.208-.799-.208-.323,0-.492,.16-.6,.528h-.276l.492-3.617,.322,.031c-.031,.128-.031,.225-.031,.337,0,1.552,.983,2.721,2.306,2.721,1.137,0,1.981-.912,1.981-2.145,0-.705-.199-1.121-.952-1.921-.031-.048-.323-.368-.6-.688-.276-.304-.584-.641-.614-.672-.968-1.057-1.198-1.521-1.198-2.417,0-1.569,1.137-2.674,2.75-2.674,.492,0,.968,.08,1.321,.225,.369,.144,.522,.176,.707,.176,.354,0,.491-.08,.707-.416h.354l-.584,3.217-.292-.048c-.031-1.072-.169-1.616-.507-2.017Z"/><path class="g" d="M33.353,156.6c-.431,0-.615-.192-.615-.656,0-.416,.031-.544,.385-1.873-1.398,2.001-2.06,2.545-3.166,2.545-.983,0-1.567-.656-1.567-1.776,0-2.562,2.428-5.555,4.503-5.555,.676,0,1.121,.337,1.244,.929l.169-.769,.046-.048,.953-.112,.107,.049c-.03,.144-.046,.176-.092,.336-.738,2.688-1.444,5.57-1.444,5.891,0,.111,.092,.208,.215,.208,.153,0,.354-.16,.814-.656,.107-.112,.215-.209,.445-.465l.185,.177c-1.184,1.472-1.552,1.776-2.182,1.776Zm-2.367-5.555c-.691,1.041-1.29,2.689-1.29,3.586,0,.736,.338,1.185,.906,1.185,.445,0,.968-.272,1.353-.704,1.075-1.217,1.89-3.153,1.89-4.498,0-.561-.338-.944-.86-.977-.646-.048-1.367,.48-1.998,1.408Z"/><path class="g" d="M37.744,149.349c.123-.048,.246-.064,.323-.064q.138,0,.43,1.697c.215,1.2,.276,2.001,.384,4.321,1.491-1.521,2.644-3.377,2.644-4.273,0-.16-.062-.272-.276-.48-.277-.256-.369-.432-.369-.704,0-.353,.23-.561,.584-.561,.461,0,.86,.433,.86,.944,0,.961-.938,2.705-2.428,4.515-1.184,1.424-1.736,1.984-1.997,1.984-.093,0-.139-.112-.139-.353q0-.016,.016-.224v-.16c0-.496-.139-2.897-.216-3.569-.23-2.145-.399-2.545-1.075-2.545-.123,0-.292,0-.461,.016v-.208c.538-.08,1.49-.271,1.721-.336Z"/><path class="g" d="M44.456,156.615c-1.214,0-2.044-.896-2.044-2.192,0-2.449,2.475-5.139,4.733-5.139,.768,0,1.229,.417,1.229,1.089,0,1.393-1.659,2.641-4.01,2.978l-.431,.063c-.139,.593-.169,.753-.169,1.009,0,.88,.568,1.456,1.444,1.456,.676,0,1.168-.256,2.289-1.216l.2,.208c-.938,1.088-2.136,1.744-3.242,1.744Zm2.105-4.754c.491-.479,.783-1.072,.783-1.601,0-.368-.215-.608-.538-.608-.783,0-1.951,1.249-2.489,2.689l-.276,.721c1.353-.353,1.937-.625,2.521-1.201Z"/><path class="g" d="M58.728,156.439l-1.967-5.267-1.015-.079-.829,3.393c-.154,.576-.185,.769-.185,.929,0,.561,.092,.624,1.061,.769l.015,.256h-3.811v-.256c.876-.145,.983-.24,1.245-1.201l1.859-7.187c.107-.432,.184-.832,.184-1.009,0-.191-.092-.384-.215-.464-.169-.112-.246-.128-.906-.224v-.257h3.856c2.12,0,3.273,.833,3.273,2.354,0,.72-.277,1.345-.784,1.809-.553,.512-1.061,.752-2.259,1.024l1.476,3.985c.307,.849,.614,1.121,1.306,1.169v.256h-2.305Zm-1.998-5.858c1.937,0,2.92-.816,2.92-2.401,0-1.232-.646-1.856-1.937-1.856-.507,0-.706,.112-.799,.448l-.983,3.729c.369,.064,.522,.08,.799,.08Z"/><path class="g" d="M68.373,151.541c0,1.217-.646,2.609-1.675,3.666-.922,.929-1.921,1.408-2.95,1.408-1.414,0-2.274-.848-2.274-2.257,0-1.713,1.137-3.585,2.766-4.529,.646-.368,1.245-.545,1.921-.545,1.321,0,2.213,.913,2.213,2.257Zm-4.349-.512c-.769,1.152-1.244,2.609-1.244,3.81,0,.864,.491,1.44,1.198,1.44,.676,0,1.275-.4,1.844-1.265,.722-1.072,1.244-2.705,1.244-3.89,0-.928-.43-1.504-1.091-1.504-.676,0-1.337,.479-1.951,1.408Z"/><path class="g" d="M75.838,151.541c0,1.217-.646,2.609-1.675,3.666-.922,.929-1.921,1.408-2.95,1.408-1.414,0-2.274-.848-2.274-2.257,0-1.713,1.137-3.585,2.766-4.529,.646-.368,1.245-.545,1.921-.545,1.321,0,2.213,.913,2.213,2.257Zm-4.349-.512c-.769,1.152-1.244,2.609-1.244,3.81,0,.864,.491,1.44,1.198,1.44,.676,0,1.275-.4,1.844-1.265,.722-1.072,1.244-2.705,1.244-3.89,0-.928-.43-1.504-1.091-1.504-.676,0-1.337,.479-1.951,1.408Z"/><path class="g" d="M87.007,154.854c-.799,1.169-1.537,1.729-2.259,1.729-.399,0-.615-.257-.615-.736,0-.16,.047-.385,.216-1.073l.938-3.729c.076-.304,.107-.496,.107-.576,0-.191-.139-.336-.308-.336-.445,0-1.229,.704-2.013,1.825-.784,1.12-1.122,1.969-1.752,4.481h-1.183c.215-.801,.261-.992,.414-1.488,.6-2.146,1.122-4.194,1.122-4.418,0-.256-.107-.4-.308-.4-.537,0-1.475,.912-2.351,2.289-.554,.849-.784,1.473-1.552,4.018h-1.168c.215-.832,.261-1.024,.63-2.321,.568-2.064,.953-3.537,.953-3.729,0-.096-.062-.208-.139-.24q-.153-.096-.86-.111v-.256c1.229-.225,1.552-.305,2.489-.497l.046,.032-.938,3.394c1.46-2.353,2.566-3.426,3.519-3.426,.522,0,.876,.385,.876,.961,0,.32-.245,1.232-.646,2.48,1.092-1.776,1.736-2.577,2.505-3.073,.369-.256,.691-.368,.999-.368,.507,0,.891,.433,.891,1.009,0,.112-.03,.4-.046,.464l-1.091,4.082c-.107,.4-.169,.656-.169,.721,0,.159,.062,.256,.2,.256q.307,0,1.336-1.28l.246,.208-.092,.111Z"/><path class="g" d="M99.692,148.452c.03-.272,.046-.512,.046-.72,0-.913-.507-1.329-1.629-1.329h-.86l-2.09,8.083c-.153,.593-.185,.736-.185,.929,0,.624,.062,.656,1.414,.769v.256h-4.518v-.256c1.029-.08,1.398-.353,1.629-1.201l2.166-8.579c-2.366-.032-2.873,.24-3.688,2.001l-.276-.064,.63-2.497h8.298l-.677,2.642-.261-.032Z"/><path class="g" d="M104.376,156.584c-.431,0-.691-.257-.691-.673,0-.192,.107-.704,.322-1.505l.892-3.345c.062-.272,.107-.465,.107-.545,.015-.208-.2-.399-.431-.399-.553,0-1.629,1.008-2.443,2.289-.63,.992-.829,1.536-1.475,4.033h-1.168l2.167-8.308c.092-.352,.153-.576,.153-.608,.153-.464,.23-.864,.23-1.088,0-.24-.276-.416-.63-.4l-.399,.016v-.256c.952-.128,1.552-.224,2.443-.448l.076,.097-1.936,7.251c1.49-2.354,2.597-3.41,3.61-3.41,.6,0,1.015,.433,1.015,1.073,0,.416-.308,1.632-.784,3.137-.261,.849-.522,1.856-.522,2.033,0,.16,.107,.288,.246,.288,.262,0,.445-.192,1.291-1.28l.199,.208c-.952,1.408-1.49,1.841-2.273,1.841Z"/><path class="g" d="M109.214,156.615c-1.214,0-2.044-.896-2.044-2.192,0-2.449,2.475-5.139,4.733-5.139,.768,0,1.229,.417,1.229,1.089,0,1.393-1.659,2.641-4.01,2.978l-.431,.063c-.139,.593-.169,.753-.169,1.009,0,.88,.568,1.456,1.444,1.456,.676,0,1.168-.256,2.289-1.216l.2,.208c-.938,1.088-2.136,1.744-3.242,1.744Zm2.105-4.754c.491-.479,.783-1.072,.783-1.601,0-.368-.215-.608-.538-.608-.783,0-1.951,1.249-2.489,2.689l-.276,.721c1.353-.353,1.937-.625,2.521-1.201Z"/><path class="g" d="M124.162,154.854c-.799,1.169-1.537,1.729-2.259,1.729-.399,0-.615-.257-.615-.736,0-.16,.047-.385,.216-1.073l.938-3.729c.076-.304,.107-.496,.107-.576,0-.191-.139-.336-.308-.336-.445,0-1.229,.704-2.013,1.825-.784,1.12-1.122,1.969-1.752,4.481h-1.183c.215-.801,.261-.992,.414-1.488,.6-2.146,1.122-4.194,1.122-4.418,0-.256-.107-.4-.308-.4-.537,0-1.475,.912-2.351,2.289-.553,.849-.784,1.473-1.552,4.018h-1.168c.215-.832,.261-1.024,.63-2.321,.568-2.064,.953-3.537,.953-3.729,0-.096-.062-.208-.139-.24q-.153-.096-.86-.111v-.256c1.229-.225,1.552-.305,2.489-.497l.046,.032-.938,3.394c1.46-2.353,2.566-3.426,3.519-3.426,.522,0,.876,.385,.876,.961,0,.32-.245,1.232-.646,2.48,1.092-1.776,1.736-2.577,2.505-3.073,.369-.256,.691-.368,.999-.368,.507,0,.891,.433,.891,1.009,0,.112-.03,.4-.046,.464l-1.091,4.082c-.107,.4-.169,.656-.169,.721,0,.159,.062,.256,.2,.256q.307,0,1.336-1.28l.246,.208-.092,.111Z"/><path class="g" d="M126.692,156.615c-1.214,0-2.044-.896-2.044-2.192,0-2.449,2.475-5.139,4.733-5.139,.768,0,1.229,.417,1.229,1.089,0,1.393-1.659,2.641-4.01,2.978l-.431,.063c-.139,.593-.169,.753-.169,1.009,0,.88,.568,1.456,1.444,1.456,.676,0,1.168-.256,2.289-1.216l.2,.208c-.938,1.088-2.136,1.744-3.242,1.744Zm2.105-4.754c.491-.479,.783-1.072,.783-1.601,0-.368-.215-.608-.538-.608-.783,0-1.951,1.249-2.489,2.689l-.276,.721c1.353-.353,1.937-.625,2.521-1.201Z"/><path class="g" d="M134.265,147.652c0-.16-.092-.305-.322-.528-.292-.272-.384-.448-.384-.736,0-.433,.338-.753,.799-.753,.507,0,.906,.513,.906,1.169,0,.912-.691,1.809-2.013,2.561l-.139-.271c.799-.561,1.152-.993,1.152-1.44Zm3.258,.016c0-.176-.092-.32-.322-.544-.292-.272-.385-.448-.385-.753,0-.416,.338-.736,.799-.736,.508,0,.907,.513,.907,1.169,0,.912-.691,1.793-2.013,2.561l-.139-.271c.799-.561,1.152-.993,1.152-1.425Z"/><path class="g" d="M145.231,156.615c-1.214,0-2.044-.896-2.044-2.192,0-2.449,2.475-5.139,4.733-5.139,.768,0,1.229,.417,1.229,1.089,0,1.393-1.659,2.641-4.01,2.978l-.431,.063c-.139,.593-.169,.753-.169,1.009,0,.88,.568,1.456,1.444,1.456,.676,0,1.168-.256,2.289-1.216l.2,.208c-.938,1.088-2.136,1.744-3.242,1.744Zm2.105-4.754c.491-.479,.783-1.072,.783-1.601,0-.368-.215-.608-.538-.608-.783,0-1.951,1.249-2.489,2.689l-.276,.721c1.353-.353,1.937-.625,2.521-1.201Z"/><path class="g" d="M152.56,149.284c.046-.016,.092,.032,.092,.064s-.016,.08-.03,.144l-.462,1.633c.923-1.328,1.66-1.841,2.674-1.841,1.106,0,1.782,.753,1.782,2.001,0,2.594-2.428,5.33-4.717,5.33-.369,0-.63-.063-1.029-.271-.369,1.393-.6,2.448-.6,2.688,0,.353,.262,.48,.999,.496v.24h-3.196v-.256c.676-.032,.876-.208,1.045-.96,.23-.977,.553-2.209,.938-3.634,.568-2.113,1.137-4.402,1.137-4.578,0-.256-.307-.496-.599-.464h-.047l-.354,.016-.03-.256,2.397-.353Zm-.415,2.562c-.477,1.217-1.045,3.329-1.045,3.873,0,.353,.307,.593,.737,.593,.814,0,1.567-.496,2.229-1.457,.691-1.024,1.152-2.417,1.152-3.521,0-.896-.292-1.312-.953-1.344-.783-.049-1.69,.736-2.12,1.856Z"/><path class="g" d="M164.463,145.347l.077,.097c-.723,2.785-.845,3.249-1.675,6.29,1.121-1.793,1.936-2.449,3.027-2.449,1.044,0,1.797,.801,1.797,1.921,0,2.545-2.627,5.41-4.979,5.41-.891,0-2.074-.496-2.074-.864v-.063l2.183-8.132,.03-.096c.016-.08,.046-.192,.093-.32,.092-.353,.138-.561,.138-.704,0-.353-.092-.4-1.014-.433v-.271c1.029-.128,1.598-.225,2.396-.385Zm-1.321,6.595c-.676,1.217-1.168,2.802-1.168,3.762,0,.368,.23,.544,.707,.544,.676,0,1.367-.336,1.937-.944,.937-1.008,1.751-2.785,1.751-3.825,0-.864-.399-1.393-1.075-1.393-.753,0-1.46,.608-2.151,1.856Z"/><path class="g" d="M168.425,149.589c.846-.16,1.414-.272,1.537-.288,.076,0,.122,0,.138-.017h.062c.23,0,1.091,2.657,1.321,4.098l.292,1.889c1.337-2.272,1.937-3.553,1.937-4.209,0-.225-.107-.368-.399-.545-.323-.208-.446-.368-.446-.624,0-.368,.246-.608,.615-.608,.477,0,.86,.4,.86,.896,0,.784-.445,1.953-1.521,3.954-1.736,3.233-3.765,5.65-4.778,5.65-.461,0-.784-.288-.784-.705,0-.368,.262-.64,.615-.64,.185,0,.354,.08,.584,.271,.169,.129,.261,.177,.353,.177,.216,0,.4-.128,.723-.496,.169-.177,.492-.576,.983-1.265,.23-.32,.338-.561,.338-.816,0-.656-.753-4.002-1.198-5.298-.292-.865-.584-1.137-1.229-1.137-.169,0-.292,.016-.491,.063v-.271c.23-.032,.43-.08,.491-.08Z"/><path class="g" d="M180.021,156.279c.691,0,1.168-.512,1.168-1.265,0-.464-.261-1.04-.86-1.841-.646-.88-.968-1.568-.968-2.097,0-1.072,.753-1.793,1.874-1.793,.292,0,.507,.032,.907,.16,.276,.08,.43,.112,.553,.112,.23,0,.338-.064,.461-.288h.23l-.338,2.257h-.246c-.138-1.265-.6-1.873-1.429-1.873-.538,0-.876,.337-.876,.881,0,.448,.246,.944,.83,1.696,.722,.929,1.045,1.633,1.045,2.257,0,1.232-.938,2.129-2.259,2.129-.262,0-.492-.048-.86-.16-.308-.08-.584-.144-.769-.144-.154,0-.246,.08-.369,.336h-.246l.339-2.577h.245c.23,1.537,.707,2.209,1.567,2.209Z"/><path class="g" d="M186.72,149.284c.046-.016,.092,.032,.092,.064s-.016,.08-.03,.144l-.462,1.633c.923-1.328,1.66-1.841,2.674-1.841,1.106,0,1.782,.753,1.782,2.001,0,2.594-2.428,5.33-4.717,5.33-.369,0-.63-.063-1.029-.271-.369,1.393-.6,2.448-.6,2.688,0,.353,.262,.48,.999,.496v.24h-3.196v-.256c.676-.032,.876-.208,1.045-.96,.23-.977,.553-2.209,.938-3.634,.568-2.113,1.137-4.402,1.137-4.578,0-.256-.307-.496-.599-.464h-.047l-.354,.016-.03-.256,2.397-.353Zm-.415,2.562c-.477,1.217-1.045,3.329-1.045,3.873,0,.353,.307,.593,.737,.593,.814,0,1.567-.496,2.229-1.457,.691-1.024,1.152-2.417,1.152-3.521,0-.896-.292-1.312-.953-1.344-.783-.049-1.69,.736-2.12,1.856Z"/><path class="g" d="M196.151,156.6c-.431,0-.615-.192-.615-.656,0-.416,.031-.544,.385-1.873-1.398,2.001-2.06,2.545-3.166,2.545-.983,0-1.567-.656-1.567-1.776,0-2.562,2.428-5.555,4.503-5.555,.676,0,1.121,.337,1.244,.929l.169-.769,.046-.048,.953-.112,.107,.049c-.03,.144-.046,.176-.092,.336-.738,2.688-1.444,5.57-1.444,5.891,0,.111,.092,.208,.215,.208,.153,0,.354-.16,.814-.656,.107-.112,.215-.209,.445-.465l.185,.177c-1.184,1.472-1.552,1.776-2.182,1.776Zm-2.367-5.555c-.691,1.041-1.29,2.689-1.29,3.586,0,.736,.338,1.185,.906,1.185,.445,0,.968-.272,1.353-.704,1.075-1.217,1.89-3.153,1.89-4.498,0-.561-.338-.944-.86-.977-.646-.048-1.367,.48-1.998,1.408Z"/><path class="g" d="M200.436,151.701c.122-.479,.245-1.136,.245-1.344,0-.288-.199-.448-.537-.448-.123,0-.185,.016-.522,.08v-.272c1.121-.192,1.29-.225,2.412-.433l.046,.032-.86,3.521,.23-.592c.246-.625,.892-1.601,1.536-2.273,.4-.448,.83-.688,1.184-.688,.431,0,.723,.32,.723,.833s-.262,.8-.723,.8c-.308,0-.431-.08-.553-.352-.077-.16-.154-.225-.262-.225-.261,0-.691,.496-1.229,1.409-.706,1.232-.968,1.889-1.812,4.689h-1.184l1.307-4.738Z"/><path class="g" d="M211.987,149.652c0,2.321-1.167,4.979-2.704,6.163-.66,.496-1.306,.736-1.982,.736-1.521,0-2.535-1.457-2.535-3.666,0-3.777,2.336-7.411,4.748-7.411,1.537,0,2.474,1.585,2.474,4.178Zm-4.425-2.192c-.784,1.488-1.552,4.642-1.552,6.402,0,1.408,.507,2.241,1.367,2.241,.691,0,1.337-.561,1.905-1.633,.876-1.633,1.46-4.242,1.46-6.45,0-1.329-.477-2.098-1.321-2.098-.707,0-1.307,.496-1.859,1.537Z"/><path class="g" d="M219.437,149.652c0,2.321-1.167,4.979-2.704,6.163-.66,.496-1.306,.736-1.982,.736-1.521,0-2.535-1.457-2.535-3.666,0-3.777,2.336-7.411,4.748-7.411,1.537,0,2.474,1.585,2.474,4.178Zm-4.425-2.192c-.784,1.488-1.552,4.642-1.552,6.402,0,1.408,.507,2.241,1.367,2.241,.691,0,1.337-.561,1.905-1.633,.876-1.633,1.46-4.242,1.46-6.45,0-1.329-.477-2.098-1.321-2.098-.707,0-1.307,.496-1.859,1.537Z"/><path class="g" d="M219.818,149.604c.507-.08,1.061-.191,1.075-.224,.185-.064,.369-.112,.461-.112,.185,0,.216,.112,.369,1.152,.169,1.137,.338,2.865,.369,3.97l3.042-4.93c.077-.128,.107-.16,.185-.16,.092,0,.123,.048,.138,.224l.446,5.715c2.074-2.657,2.612-3.521,2.612-4.21,0-.192-.093-.368-.339-.608-.245-.224-.322-.368-.322-.576,0-.353,.23-.561,.6-.561,.476,0,.813,.353,.813,.849,0,1.024-1.167,3.025-3.35,5.715-.062,.096-.138,.176-.153,.191-.415,.528-.568,.688-.691,.688s-.139-.048-.169-.48l-.415-5.186-1.413,2.545c-.477,.864-.784,1.44-.861,1.585-.568,1.136-.829,1.536-.998,1.536-.154,0-.185-.112-.216-.752l-.046-1.44c-.046-1.281-.23-3.105-.384-3.906-.139-.64-.23-.752-.707-.752h-.139l-.307,.016v-.224c.185-.032,.338-.048,.399-.064Z"/></g></g></svg>